<svg preserveAspectRatio="none" width="100%" height="100%" overflow="visible" style="display: block;" viewBox="0 0 27 30" fill="none" xmlns="http://www.w3.org/2000/svg">
<g id="right arrow">
<path id="Rectangle 487" d="M0 15.0023H3.00034V18.0026H0V15.0023Z" fill="var(--fill-0, #004F9F)"/>
<path id="Rectangle 488" d="M3.00018 18.002H6.00052V21.0024H3.00018V18.002Z" fill="var(--fill-0, #004F9F)"/>
<path id="Rectangle 489" d="M6.00128 21.004H9.00162V24.0044H6.00128V21.004Z" fill="var(--fill-0, #004F9F)"/>
<path id="Rectangle 490" d="M9.00055 24.0042H12.0009V27.0046H9.00055V24.0042Z" fill="var(--fill-0, #004F9F)"/>
<path id="Rectangle 491" d="M12.0007 27.0035H15.0011V30.0038H12.0007V27.0035Z" fill="var(--fill-0, #004F9F)"/>
<path id="Rectangle 496" d="M12.0007 24.0042H15.0011V27.0046H12.0007V24.0042Z" fill="var(--fill-0, #004F9F)"/>
<path id="Rectangle 497" d="M12.0007 21.004H15.0011V24.0044H12.0007V21.004Z" fill="var(--fill-0, #004F9F)"/>
<path id="Rectangle 498" d="M12.0007 18.002H15.0011V21.0024H12.0007V18.002Z" fill="var(--fill-0, #004F9F)"/>
<path id="Rectangle 499" d="M12.0007 15.0023H15.0011V18.0026H12.0007V15.0023Z" fill="var(--fill-0, #004F9F)"/>
<path id="Rectangle 500" d="M12.0007 12.001H15.0011V15.0013H12.0007V12.001Z" fill="var(--fill-0, #004F9F)"/>
<path id="Rectangle 501" d="M12.0007 9.00055H15.0011V12.0009H12.0007V9.00055Z" fill="var(--fill-0, #004F9F)"/>
<path id="Rectangle 502" d="M12.0007 6.00128H15.0011V9.00162H12.0007V6.00128Z" fill="var(--fill-0, #004F9F)"/>
<path id="Rectangle 503" d="M12.0007 2.99902H15.0011V5.99936H12.0007V2.99902Z" fill="var(--fill-0, #004F9F)"/>
<path id="Rectangle 504" d="M12.0007 0H15.0011V3.00034H12.0007V0Z" fill="var(--fill-0, #004F9F)"/>
<path id="Rectangle 492" d="M15.0018 24.0042H18.0022V27.0046H15.0018V24.0042Z" fill="var(--fill-0, #004F9F)"/>
<path id="Rectangle 493" d="M18.002 21.004H21.0024V24.0044H18.002V21.004Z" fill="var(--fill-0, #004F9F)"/>
<path id="Rectangle 494" d="M21.0024 18.002H24.0028V21.0024H21.0024V18.002Z" fill="var(--fill-0, #004F9F)"/>
<path id="Rectangle 495" d="M24.0035 15.0023H27.0039V18.0026H24.0035V15.0023Z" fill="var(--fill-0, #004F9F)"/>
</g>
</svg>
