<svg width="60" height="60" viewBox="0 0 60 60" fill="none" xmlns="http://www.w3.org/2000/svg">
<rect width="60" height="60" fill="white"/>
<path d="M28.0024 16.5V19.5003H31.0028V16.5H28.0024Z" fill="#004F9F"/>
<path d="M31.002 19.5002V22.5006H34.0023V19.5002H31.002Z" fill="#004F9F"/>
<path d="M34.0039 22.5012V25.5016H37.0042V22.5012H34.0039Z" fill="#004F9F"/>
<path d="M37.0044 25.5005V28.5008H40.0047V25.5005H37.0044Z" fill="#004F9F"/>
<path d="M40.0034 28.5007V31.5011H43.0038V28.5007H40.0034Z" fill="#004F9F"/>
<path d="M37.0044 28.5007V31.5011H40.0047V28.5007H37.0044Z" fill="#004F9F"/>
<path d="M34.0039 28.5007V31.5011H37.0042V28.5007H34.0039Z" fill="#004F9F"/>
<path d="M31.002 28.5007V31.5011H34.0023V28.5007H31.002Z" fill="#004F9F"/>
<path d="M28.0024 28.5007V31.5011H31.0028V28.5007H28.0024Z" fill="#004F9F"/>
<path d="M25.001 28.5007V31.5011H28.0013V28.5007H25.001Z" fill="#004F9F"/>
<path d="M22.0005 28.5007V31.5011H25.0008V28.5007H22.0005Z" fill="#004F9F"/>
<path d="M19.0015 28.5007V31.5011H22.0018V28.5007H19.0015Z" fill="#004F9F"/>
<path d="M15.999 28.5007V31.5011H18.9994V28.5007H15.999Z" fill="#004F9F"/>
<path d="M13 28.5007V31.5011H16.0003V28.5007H13Z" fill="#004F9F"/>
<path d="M37.0044 31.502V34.5023H40.0047V31.502H37.0044Z" fill="#004F9F"/>
<path d="M34.0039 34.502V37.5023H37.0042V34.502H34.0039Z" fill="#004F9F"/>
<path d="M31.002 37.5024V40.5028H34.0023V37.5024H31.002Z" fill="#004F9F"/>
<path d="M28.0024 40.5034V43.5038H31.0028V40.5034H28.0024Z" fill="#004F9F"/>
</svg>
