<svg width="78" height="49" viewBox="0 0 78 49" fill="none" xmlns="http://www.w3.org/2000/svg">
<path d="M22.3726 36.0901C22.3726 36.0901 21.8182 36.1177 21.6519 36.0901C21.6519 36.0348 21.6519 35.9519 21.6519 35.8966C21.6519 34.7085 21.6519 33.5203 21.6519 32.3321C21.6519 32.0834 21.6519 31.8623 21.6519 31.6136C21.6519 31.586 21.6519 31.5584 21.6519 31.5031C21.7073 31.5031 21.735 31.5031 21.7905 31.5031C21.9568 31.5031 22.1231 31.5031 22.2617 31.5031C22.4003 31.5031 22.4557 31.5308 22.5389 31.6413C22.733 32.0005 22.9547 32.3873 23.1488 32.7466C23.2874 32.9953 23.426 33.2439 23.5646 33.4926C23.5646 33.5203 23.62 33.5755 23.6477 33.6308C23.7032 33.5755 23.7309 33.5203 23.7586 33.465C24.0913 32.8571 24.4516 32.2492 24.7843 31.6413C24.8674 31.5031 24.9229 31.4755 25.0615 31.4755C25.2555 31.4755 25.4218 31.4755 25.6159 31.4755C25.6159 31.5308 25.6159 31.586 25.6159 31.6413V35.9795C25.6159 35.9795 25.6159 36.0624 25.6159 36.1177C25.5882 36.1177 25.5604 36.1177 25.5327 36.1177C25.3664 36.1177 25.2001 36.1177 25.006 36.1177C24.9506 36.1177 24.8952 36.0901 24.8952 36.0072V32.9124C24.8952 32.9124 24.7843 32.9953 24.7843 33.0229C24.4793 33.5203 24.1744 34.0453 23.8972 34.5427C23.8418 34.6532 23.7586 34.7637 23.7032 34.8466C23.7032 34.8742 23.6477 34.9019 23.62 34.9571C23.2042 34.294 22.8438 33.5755 22.428 32.9124C22.3726 32.9676 22.3726 33.0229 22.3726 33.0782C22.3726 34.0176 22.3726 34.9295 22.3726 35.869C22.3726 35.9243 22.3726 36.0072 22.3726 36.0624V36.0901Z" fill="#0D0D0D"/>
<path d="M55.6278 36.2062C54.7685 36.1786 54.1587 35.7641 53.7706 35.018C53.4934 34.4654 53.4379 33.9127 53.5488 33.3048C53.632 32.7522 53.8814 32.2824 54.2973 31.8956C54.6853 31.564 55.1012 31.3706 55.6278 31.3982C56.2654 31.3982 56.7921 31.6469 57.2079 32.1443C57.4297 32.4206 57.6237 32.7522 57.6792 33.0837C57.8455 33.8022 57.79 34.4654 57.402 35.1285C57.0693 35.6812 56.6258 36.0404 55.9882 36.1786C55.9605 36.1786 55.9328 36.1786 55.905 36.1786C55.8219 36.1786 55.711 36.1786 55.6278 36.1786V36.2062ZM54.2695 33.8574C54.2695 34.0509 54.325 34.3548 54.4359 34.6035C54.6299 35.0456 54.9625 35.3496 55.4615 35.4049C55.9882 35.4601 56.404 35.2391 56.7089 34.8246C56.903 34.5759 56.9584 34.2719 56.9861 33.9403C56.9861 33.4706 56.903 33.0285 56.5981 32.6416C56.0436 31.9508 55.0734 32.0614 54.6299 32.6416C54.3804 32.9732 54.2695 33.3324 54.2695 33.8574Z" fill="#0D0D0D"/>
<path d="M43.4357 31.4769C43.6575 31.4769 43.8515 31.4769 44.0733 31.4769C44.4891 31.4769 44.9049 31.4769 45.3207 31.4769C45.5425 31.4769 45.7365 31.5321 45.9583 31.615C46.2909 31.7532 46.5127 31.9742 46.6513 32.2782C46.8176 32.6927 46.8453 33.1348 46.679 33.5493C46.5404 33.8809 46.3186 34.1296 45.986 34.2954C45.986 34.2954 45.9306 34.2954 45.9028 34.323C45.9028 34.323 45.8474 34.323 45.8197 34.3506C46.1523 34.9309 46.5127 35.4835 46.8731 36.0638C46.8453 36.0638 46.8176 36.0914 46.7899 36.0914C46.5958 36.0914 46.4018 36.0914 46.2355 36.0914C46.0969 36.0914 46.0137 36.0362 45.9306 35.9256C45.6811 35.5112 45.4316 35.1243 45.1821 34.7098C45.1821 34.6822 45.1267 34.6546 45.0989 34.5993C45.0435 34.4888 44.9603 34.4611 44.8494 34.4611C44.6554 34.4611 44.4891 34.4611 44.295 34.4611C44.1287 34.4611 44.1287 34.4611 44.1287 34.6269C44.1287 34.9862 44.1287 35.3454 44.1287 35.7322V35.9809C44.1287 35.9809 44.1287 36.0638 44.0456 36.0638C43.8515 36.0638 43.6298 36.0638 43.4357 36.0638C43.408 35.9257 43.3803 31.6427 43.4357 31.4492V31.4769ZM44.1287 33.7427C44.1287 33.7427 44.1842 33.7427 44.2119 33.7427C44.5722 33.7427 44.9326 33.7427 45.293 33.7427C45.6533 33.7151 45.8751 33.5216 45.986 33.1624C46.0414 32.8585 45.986 32.4164 45.5425 32.2782C45.4593 32.2506 45.3484 32.2229 45.2653 32.2229C44.9326 32.2229 44.6277 32.2229 44.295 32.2229C44.1287 32.2229 44.1287 32.2229 44.1287 32.3887V33.6322C44.1287 33.6322 44.1287 33.7151 44.1287 33.7427Z" fill="#0D0D0D"/>
<path d="M74.3184 31.5031H77.3122V32.2492C76.9241 32.2492 76.536 32.2492 76.1756 32.2492C75.7875 32.2492 75.4272 32.2492 75.0668 32.2492C75.0114 32.3873 75.0114 33.1887 75.0668 33.4097H77.035C77.035 33.4097 77.0904 33.9624 77.035 34.1558C76.8686 34.1558 76.7023 34.1558 76.536 34.1558H75.0391C75.0391 34.1558 74.9836 35.1782 75.0391 35.3716C75.2331 35.3716 75.4272 35.3716 75.5935 35.3716C75.7875 35.3716 75.9816 35.3716 76.1756 35.3716H77.3399C77.3399 35.6203 77.3399 35.8414 77.3399 36.1177C76.8409 36.1177 76.3142 36.1177 75.8153 36.1177C75.3163 36.1177 74.8173 36.1177 74.2906 36.1177C74.2629 36.0072 74.2352 31.6689 74.2906 31.4755L74.3184 31.5031Z" fill="#0D0D0D"/>
<path d="M36.675 36.1233C36.4255 36.1233 36.2037 36.1233 35.9543 36.1233C35.9265 36.1233 35.8988 36.068 35.8711 36.0404C35.7602 35.764 35.6493 35.4877 35.5662 35.2114C35.5107 35.0456 35.5107 35.018 35.3167 35.018H33.7366C33.5703 35.018 33.5703 35.018 33.5149 35.1838C33.4317 35.4325 33.3208 35.7088 33.2376 35.9575C33.1822 36.0956 33.1545 36.1233 33.0159 36.1233C32.8496 36.1233 32.6832 36.1233 32.5169 36.1233C32.5169 36.1233 32.4892 36.1233 32.4615 36.1233C32.4615 36.068 32.4615 36.0127 32.4892 35.9851C32.711 35.4048 32.9327 34.8246 33.1545 34.2443C33.4594 33.4429 33.7643 32.6692 34.097 31.8679C34.1247 31.785 34.1524 31.7297 34.1801 31.6468C34.1801 31.564 34.2633 31.5087 34.3187 31.5087C34.4851 31.5087 34.6791 31.5087 34.8454 31.5087C34.8732 31.5087 34.9286 31.5916 34.9563 31.6192C35.0949 31.9508 35.2058 32.31 35.3444 32.6416C35.7879 33.7745 36.2037 34.9074 36.6473 36.0404C36.6473 36.0404 36.6473 36.0956 36.675 36.1509V36.1233ZM33.8475 34.2719C34.1247 34.2995 35.0672 34.2719 35.2058 34.2719C34.984 33.6916 34.79 33.139 34.5682 32.5587H34.5405C34.3187 33.139 34.097 33.7193 33.8752 34.2995L33.8475 34.2719Z" fill="#0D0D0D"/>
<path d="M14.8573 36.0914C14.8573 36.0914 14.7742 36.0914 14.7187 36.0914C14.5524 36.0914 14.3861 36.0914 14.2475 36.0914C14.1089 36.0914 14.1089 36.0914 14.0534 35.9533C13.9425 35.677 13.8594 35.4006 13.7485 35.0967C13.7208 35.0138 13.6653 34.9585 13.5822 34.9862C13.0278 34.9862 12.4734 34.9862 11.919 34.9862C11.7803 34.9862 11.7803 34.9862 11.7249 35.1243C11.614 35.4006 11.5309 35.677 11.42 35.9533C11.3923 36.0362 11.3368 36.0914 11.2537 36.0914C11.0596 36.0914 10.8656 36.0914 10.6438 36.0914C10.6715 35.9809 10.6992 35.9257 10.727 35.8428C10.8379 35.5941 10.921 35.3454 11.0319 35.0967C11.4477 34.019 11.8635 32.9137 12.2793 31.8361C12.307 31.7532 12.3348 31.6427 12.3902 31.5598C12.3902 31.4769 12.4734 31.4492 12.5565 31.4492C12.6951 31.4492 12.8614 31.4492 13 31.4492C13.0832 31.4492 13.1109 31.4492 13.1664 31.5598C13.5822 32.6374 13.998 33.7427 14.4138 34.8204C14.5247 35.1519 14.6633 35.4559 14.8019 35.7599C14.8296 35.8428 14.885 35.9533 14.885 36.0638L14.8573 36.0914ZM12.7506 32.4993C12.6397 32.6651 12.113 34.1572 12.113 34.2677H13.4436C13.2495 33.6598 13 33.1072 12.7783 32.4993H12.7506Z" fill="#0D0D0D"/>
<path d="M4.16176 32.1682C4.02316 32.3616 3.85684 32.5274 3.69052 32.7485C3.63507 32.6932 3.60735 32.6656 3.55191 32.6103C3.35787 32.4169 3.10839 32.2511 2.83118 32.1958C2.35993 32.1129 1.94412 32.2511 1.6392 32.6103C1.38972 32.8866 1.27883 33.1906 1.25111 33.5498C1.25111 33.909 1.25111 34.2683 1.41744 34.6275C1.58376 34.9591 1.80552 35.2354 2.16589 35.3735C2.49853 35.5117 2.83118 35.4564 3.16383 35.2906C3.35787 35.2077 3.52419 35.0696 3.63507 34.9314C3.63507 34.9314 3.69052 34.9038 3.71824 34.8485C3.85684 35.0143 3.99544 35.1525 4.10632 35.3183C4.16176 35.3735 4.10632 35.4288 4.10632 35.4841C3.88456 35.7328 3.63507 35.9262 3.35787 36.0643C2.27677 36.5341 1.08479 35.9538 0.668983 34.9038C0.613542 34.7104 0.585821 34.5169 0.50266 34.3235C0.419498 34.0748 0.419498 33.8261 0.447219 33.5774C0.50266 33.1077 0.641262 32.6656 0.918467 32.2787C1.16795 31.9471 1.5006 31.6985 1.9164 31.5327C2.19361 31.4221 2.49853 31.3945 2.77574 31.4221C3.30243 31.505 3.77368 31.6985 4.10632 32.1129C4.10632 32.1129 4.10632 32.1129 4.10632 32.1682H4.16176Z" fill="#0D0D0D"/>
<path d="M65.4474 32.2793C65.4474 32.2793 65.3088 32.2793 65.2534 32.2793C64.9484 32.2793 64.6435 32.2793 64.3386 32.2793C64.1723 32.2793 64.1723 32.2793 64.1723 32.1135V31.5885C64.1723 31.5885 67.2492 31.5332 67.4433 31.5885C67.4433 31.6713 67.4433 31.7266 67.4433 31.8095C67.4433 31.92 67.4433 32.0582 67.4433 32.1687C67.4433 32.2793 67.4433 32.2793 67.3324 32.2793C67.1106 32.2793 66.8889 32.2793 66.6671 32.2793C66.5008 32.2793 66.3622 32.2793 66.1959 32.3345V34.8767C66.1959 35.2912 66.1959 35.7057 66.1959 36.1478H65.4751C65.4751 36.1478 65.4751 36.0372 65.4751 35.9543V32.3069L65.4474 32.2793Z" fill="#0D0D0D"/>
<path d="M43.9029 7.63709C44.0675 7.60974 44.2047 7.52768 44.3145 7.41828C44.6712 7.06273 45.0827 6.78922 45.412 6.40632C45.6041 6.18751 45.851 6.07811 46.1254 5.99606C46.4821 5.88666 46.8388 5.83196 47.2229 5.88666C47.7442 5.96871 48.1009 6.29691 48.3479 6.76187C48.4576 6.98068 48.5399 7.19948 48.6222 7.41828C48.8143 7.80119 49.0064 8.15674 49.1984 8.53965C49.6923 9.49692 50.1313 10.4815 50.488 11.4935C50.8172 12.3961 51.1465 13.2713 51.5581 14.1465C51.6953 14.42 51.8599 14.6661 52.1068 14.8576C52.4635 15.1585 52.7928 15.4593 53.1769 15.7328C53.3141 15.8422 53.4513 15.9516 53.5885 16.061C53.9452 16.3892 54.3293 16.6901 54.7134 16.9909C55.3445 17.4832 55.9481 17.9755 56.5792 18.4679C56.9359 18.7687 57.32 19.0422 57.6767 19.3157C57.8413 19.4251 58.006 19.5345 58.1432 19.6713C58.4175 19.9174 58.7468 20.0268 59.1035 20.0268C59.5425 20.0268 60.0089 20.0268 60.4479 20.0268C61.4083 20.0268 62.3686 20.0268 63.3289 20.0268C64.2343 20.0268 65.1672 20.0815 66.0727 20.1089C66.594 20.1089 67.1428 20.1909 67.6641 20.3003C67.9385 20.355 68.2128 20.4644 68.4598 20.5465C69.0908 20.7653 69.7494 20.9841 70.353 21.3123C71.3133 21.832 72.2462 22.379 73.1791 22.926C74.0571 23.4456 74.9077 23.9926 75.7308 24.567C76.1972 24.8952 76.6637 25.2508 77.0478 25.661C77.2399 25.8525 77.3771 26.0713 77.4319 26.3174C77.624 27.0285 77.2673 27.5482 76.6362 27.767C76.0875 27.9585 75.5662 27.8491 75.0723 27.6029C74.9077 27.5209 74.743 27.3841 74.5784 27.2747C74.0022 26.8097 73.4535 26.3448 72.8773 25.8798C72.2736 25.3875 71.6974 24.9226 71.0938 24.4576C70.2707 23.8285 69.4201 23.2542 68.4872 22.7892C67.7464 22.4063 66.9781 22.1875 66.1824 22.1328C65.3593 22.0508 64.5362 22.0781 63.6856 22.0781C62.2039 22.0781 60.6949 22.0781 59.2132 22.0781C58.8565 22.0781 58.5273 22.0234 58.1706 21.9961C58.0334 21.9961 57.8962 21.9414 57.759 21.8593C57.4023 21.5858 57.0182 21.3397 56.6615 21.0661C55.0701 19.8354 53.4787 18.5773 51.8873 17.3465C51.3934 16.9636 50.8996 16.5533 50.3782 16.1431C49.9941 15.8422 49.7472 15.4593 49.5551 14.9944C48.9515 13.326 48.3204 11.6302 47.607 10.0166C47.4424 9.60632 47.2503 9.22341 47.0308 8.8405C46.8936 8.567 46.8113 8.53965 46.5095 8.6764C46.3723 8.7311 46.29 8.81315 46.2077 8.92256C46.0431 9.11401 45.8784 9.30546 45.7138 9.49691C45.3022 9.96187 44.8632 10.4268 44.3694 10.7824C44.2322 10.8644 44.095 10.9465 43.9578 11.0012C43.6285 11.1379 43.3542 11.0559 43.0798 10.8644C42.8603 10.7003 42.7231 10.4815 42.5859 10.2627C42.3664 9.87982 42.2292 9.46956 42.0646 9.05931C41.5707 7.80119 41.0219 6.57042 40.4183 5.367C40.336 5.2029 40.1988 5.03879 40.0616 4.90204C39.8147 4.65589 39.5403 4.62854 39.2659 4.84734C39.019 5.01144 38.8269 5.2576 38.6897 5.50375C38.4702 5.83196 38.2782 6.18751 38.1135 6.54307C37.6745 7.39093 37.1807 8.21144 36.6593 9.00461C36.1655 9.77042 35.6716 10.5362 35.1777 11.302C34.9308 11.6576 34.7387 12.0405 34.5192 12.4234C34.1076 13.1072 33.5314 13.6815 32.8729 14.1465C32.187 14.6114 31.4736 15.0491 30.7053 15.3226C30.3761 15.432 30.0468 15.514 29.7176 15.5961C29.1688 15.7328 28.6201 15.8969 28.0439 16.0337C27.4677 16.1978 26.864 16.3619 26.2878 16.526C25.0806 16.8542 23.9007 17.2644 22.7209 17.7294C22.1722 17.9482 21.6234 18.1944 21.1021 18.4132C20.7454 18.5773 20.3887 18.7414 20.032 18.9055C19.6753 19.0696 19.3186 19.261 18.9894 19.4798C17.7547 20.1909 16.52 20.9294 15.2853 21.6405C14.4347 22.1328 13.5293 22.4884 12.5964 22.7345C11.7732 22.9807 10.9775 23.1721 10.1544 23.4183C8.28863 23.9379 6.47773 24.567 4.74915 25.4422C4.20039 25.7157 3.6242 25.9892 3.07544 26.2901C2.71875 26.4815 2.36206 26.7277 2.00537 26.9191C1.73099 27.0832 1.48405 27.22 1.18223 27.2747C0.798102 27.3567 0.468848 27.2473 0.249346 26.9191C-0.0524704 26.4815 -0.0250326 26.0439 0.249346 25.6063C0.468848 25.2781 0.798102 25.0593 1.09992 24.8405C1.5938 24.5123 2.08768 24.2661 2.609 24.0473C3.34982 23.7191 4.09064 23.3909 4.83146 23.0627C5.62716 22.7345 6.42286 22.461 7.24599 22.2149C8.42582 21.8593 9.63308 21.5038 10.8129 21.1482C11.636 20.902 12.4317 20.6559 13.2274 20.3824C13.8311 20.1636 14.4073 19.8627 14.956 19.5345C16.273 18.7687 17.5626 18.0029 18.8796 17.2644C19.3735 16.9909 19.8948 16.7448 20.4161 16.4986C21.2118 16.1157 22.035 15.7602 22.8581 15.4867C23.4343 15.2952 24.0379 15.1038 24.6141 14.9397C25.4647 14.6935 26.3153 14.4747 27.1658 14.2285C27.6872 14.0918 28.2085 13.955 28.7024 13.7636C30.2114 13.1619 31.5285 12.2867 32.6809 11.1379C33.0924 10.7277 33.4217 10.2354 33.7509 9.77042C34.2997 8.94991 34.8484 8.12939 35.3972 7.30888C35.5618 7.06273 35.7264 6.78922 35.8636 6.51572C36.1929 5.80461 36.6045 5.1482 37.0435 4.51914C37.4002 3.97213 37.7843 3.45247 38.141 2.93281C38.2507 2.79606 38.3605 2.65931 38.4702 2.52255C38.6897 2.2764 38.9641 2.13965 39.2934 2.13965C39.6226 2.13965 39.9519 2.13965 40.3086 2.13965C40.5555 2.13965 40.775 2.24905 40.9396 2.41315C41.2415 2.68666 41.4335 3.01486 41.6256 3.34307C41.7902 3.67127 41.9823 3.97213 42.2292 4.21828C42.3115 4.30033 42.3664 4.40973 42.4213 4.51914C42.8877 5.5311 43.3542 6.51572 43.8206 7.52768C43.8206 7.58238 43.8755 7.60974 43.9029 7.66444V7.63709Z" fill="#0D0D0D"/>
<path d="M20.4972 1.99658C19.8387 1.99658 19.1802 1.99658 18.5216 2.10598C17.5064 2.24274 16.5461 2.51624 15.6681 3.00855C15.2565 3.2547 14.8175 3.44615 14.406 3.63761C13.6926 3.99316 13.0615 4.51282 12.5128 5.05983C11.3329 6.20855 10.4549 7.52137 9.82385 9.02564C9.7141 9.2718 9.60435 9.5453 9.4946 9.79145C9.19279 10.4205 9.0556 11.0769 9.02816 11.7607C9.02816 12.2256 9.02816 12.6632 9.08303 13.1009C9.19278 13.9487 9.38485 14.7692 9.65923 15.5897C9.82386 16.0547 10.0434 16.4923 10.3177 16.9026C10.5372 17.2308 10.7293 17.559 10.8665 17.9419C10.9488 18.1607 11.0037 18.4068 11.0037 18.6256C11.0037 19.118 10.6196 19.5009 10.1257 19.5009C9.60435 19.5009 9.24766 19.2821 8.94584 18.8718C8.67147 18.5162 8.4794 18.106 8.28734 17.6957C7.90321 16.7932 7.62883 15.8633 7.40933 14.906C7.27214 14.3316 7.16239 13.7299 7.10751 13.1556C7.05263 12.5812 7.05263 11.9795 7.10751 11.4051C7.16239 10.5299 7.35445 9.7094 7.65627 8.88889C7.95808 8.09573 8.34221 7.38462 8.78122 6.67351C9.30254 5.88034 9.85129 5.11453 10.4824 4.34872C11.3878 3.22735 12.5128 2.35214 13.8023 1.69573C14.5157 1.34017 15.2565 0.984616 15.9974 0.711111C16.7107 0.464957 17.4241 0.273504 18.165 0.164103C18.8509 0.0820513 19.5643 0 20.2777 0C21.0734 0 21.8691 0.109402 22.6648 0.273504C24.2836 0.62906 25.7378 1.28547 27.0822 2.24274C28.1523 3.00855 29.0303 3.93846 29.7712 5.00513C30.2925 5.79829 30.7864 6.59145 31.1705 7.46667C31.3351 7.84957 31.4723 8.23248 31.5272 8.64274C31.5546 8.91624 31.5546 9.18975 31.5272 9.4359C31.4174 9.84616 31.1156 10.1197 30.6766 10.147C30.2376 10.1744 29.9358 10.0103 29.6888 9.6547C29.5242 9.40855 29.4145 9.10769 29.3321 8.83419C28.9206 7.54872 28.1798 6.42735 27.3017 5.41539C26.5884 4.59487 25.7652 3.85641 24.8323 3.2547C24.119 2.78974 23.3781 2.43419 22.555 2.21538C22.2532 2.13333 21.9239 2.07863 21.5947 2.05128C21.238 2.02393 20.8813 1.99658 20.5246 1.99658H20.4972Z" fill="#0D0D0D"/>
<path d="M3.82543 38.9077H5.65498L9.50813 47.9158H7.45681L6.6252 45.8987H2.82749L1.99588 47.9158H0L3.85315 38.9077H3.82543ZM5.90446 44.1855L4.71248 41.2841L3.5205 44.1855H5.90446Z" fill="#0D0D0D"/>
<path d="M10.8756 38.9934H14.9783C16.1148 38.9934 17.0019 39.2974 17.584 39.9053C18.083 40.4027 18.3602 41.0935 18.3602 41.9501C18.3602 43.4146 17.584 44.3265 16.4474 44.7409L18.6374 47.9463H16.3366L14.4239 45.1002H12.8715V47.9463H10.9034V39.0211L10.8756 38.9934ZM14.8397 43.3317C15.8099 43.3317 16.3643 42.8343 16.3643 42.0606C16.3643 41.1764 15.7822 40.7619 14.8119 40.7619H12.8438V43.3317H14.8397Z" fill="#0D0D0D"/>
<path d="M20.1285 38.9934H23.7876C25.9221 38.9934 27.2249 40.2369 27.2249 42.0882C27.2249 44.1883 25.6172 45.2659 23.5936 45.2659H22.0967V47.9463H20.1285V38.9934ZM23.6767 43.4975C24.6747 43.4975 25.2291 42.9172 25.2291 42.1435C25.2291 41.2316 24.6192 40.7619 23.6213 40.7619H22.0967V43.4975H23.6767Z" fill="#0D0D0D"/>
<path d="M28.2713 43.4685C28.2713 40.8987 30.2949 38.8263 33.0392 38.8263C35.7835 38.8263 37.7794 40.8711 37.7794 43.4132C37.7794 45.983 35.7558 48.0554 33.0115 48.0554C30.2672 48.0554 28.2713 46.0107 28.2713 43.4685ZM35.7281 43.4685C35.7281 41.9211 34.5915 40.6224 33.0115 40.6224C31.4314 40.6224 30.3226 41.8658 30.3226 43.4132C30.3226 44.9606 31.4591 46.2593 33.0392 46.2593C34.6193 46.2593 35.7281 45.0159 35.7281 43.4685Z" fill="#0D0D0D"/>
<path d="M42.0564 38.9077H43.8859L47.7391 47.9158H45.6877L44.8561 45.8987H41.0584L40.2268 47.9158H38.2032L42.0564 38.9077ZM44.1354 44.1855L42.9434 41.2841L41.7514 44.1855H44.1354Z" fill="#0D0D0D"/>
<path d="M49.0954 38.9934H52.5882C55.4157 38.9934 57.3561 40.9277 57.3561 43.4422C57.3561 45.9844 55.4157 47.9463 52.5882 47.9463H49.0954V38.9934ZM51.0636 40.7619V46.1502H52.5882C54.196 46.1502 55.2771 45.0725 55.2771 43.4699C55.2771 41.8672 54.1683 40.7619 52.5882 40.7619H51.0636Z" fill="#0D0D0D"/>
<path d="M58.6903 43.4685C58.6903 40.8987 60.714 38.8263 63.4583 38.8263C66.2026 38.8263 68.1985 40.8711 68.1985 43.4132C68.1985 45.983 66.1749 48.0554 63.4306 48.0554C60.6862 48.0554 58.6903 46.0107 58.6903 43.4685ZM66.1749 43.4685C66.1749 41.9211 65.0383 40.6224 63.4583 40.6224C61.8782 40.6224 60.7694 41.8658 60.7694 43.4132C60.7694 44.9606 61.9059 46.2593 63.486 46.2593C65.0661 46.2593 66.1749 45.0159 66.1749 43.4685Z" fill="#0D0D0D"/>
<path d="M69.9582 38.9934H74.0608C75.1974 38.9934 76.0844 39.2974 76.6666 39.9053C77.1655 40.4027 77.4427 41.0935 77.4427 41.9501C77.4427 43.4146 76.6666 44.3265 75.53 44.7409L77.7199 47.9463H75.4191L73.5064 45.1002H71.9541V47.9463H69.9859V39.0211L69.9582 38.9934ZM73.9222 43.3317C74.8925 43.3317 75.4469 42.8343 75.4469 42.0606C75.4469 41.1764 74.8647 40.7619 73.8945 40.7619H71.9264V43.3317H73.9222Z" fill="#0D0D0D"/>
</svg>
