<svg preserveAspectRatio="none" width="100%" height="100%" overflow="visible" style="display: block;" viewBox="0 0 78 48" fill="none" xmlns="http://www.w3.org/2000/svg">
<g id="Logo - Camarote Arpoador" clip-path="url(#clip0_3914_37)">
<g id="Group">
<path id="Vector" d="M21.3726 36.0901C21.3726 36.0901 20.8182 36.1177 20.6519 36.0901C20.6519 36.0348 20.6519 35.9519 20.6519 35.8966C20.6519 34.7085 20.6519 33.5203 20.6519 32.3321C20.6519 32.0834 20.6519 31.8623 20.6519 31.6136C20.6519 31.586 20.6519 31.5584 20.6519 31.5031C20.7073 31.5031 20.7351 31.5031 20.7905 31.5031C20.9568 31.5031 21.1232 31.5031 21.2618 31.5031C21.4004 31.5031 21.4558 31.5308 21.539 31.6413C21.733 32.0005 21.9548 32.3873 22.1488 32.7466C22.2874 32.9953 22.426 33.2439 22.5646 33.4926C22.5646 33.5203 22.6201 33.5755 22.6478 33.6308C22.7032 33.5755 22.7309 33.5203 22.7587 33.465C23.0913 32.8571 23.4517 32.2492 23.7843 31.6413C23.8675 31.5031 23.9229 31.4755 24.0615 31.4755C24.2556 31.4755 24.4219 31.4755 24.6159 31.4755C24.6159 31.5308 24.6159 31.586 24.6159 31.6413V35.9795C24.6159 35.9795 24.6159 36.0624 24.6159 36.1177C24.5882 36.1177 24.5605 36.1177 24.5328 36.1177C24.3665 36.1177 24.2001 36.1177 24.0061 36.1177C23.9506 36.1177 23.8952 36.0901 23.8952 36.0072V32.9124C23.8952 32.9124 23.7843 32.9953 23.7843 33.0229C23.4794 33.5203 23.1745 34.0453 22.8973 34.5427C22.8418 34.6532 22.7587 34.7637 22.7032 34.8466C22.7032 34.8742 22.6478 34.9019 22.6201 34.9571C22.2043 34.294 21.8439 33.5755 21.4281 32.9124C21.3726 32.9676 21.3726 33.0229 21.3726 33.0782C21.3726 34.0176 21.3726 34.9295 21.3726 35.869C21.3726 35.9243 21.3726 36.0072 21.3726 36.0624V36.0901Z" fill="var(--fill-0, #D9D9D9)"/>
<path id="Vector_2" d="M54.6279 36.2062C53.7686 36.1786 53.1587 35.7641 52.7706 35.018C52.4934 34.4654 52.438 33.9127 52.5489 33.3048C52.632 32.7522 52.8815 32.2824 53.2973 31.8956C53.6854 31.564 54.1012 31.3706 54.6279 31.3982C55.2655 31.3982 55.7922 31.6469 56.208 32.1443C56.4297 32.4206 56.6238 32.7522 56.6792 33.0837C56.8455 33.8022 56.7901 34.4654 56.402 35.1285C56.0694 35.6812 55.6258 36.0404 54.9883 36.1786C54.9605 36.1786 54.9328 36.1786 54.9051 36.1786C54.8219 36.1786 54.7111 36.1786 54.6279 36.1786V36.2062ZM53.2696 33.8574C53.2696 34.0509 53.325 34.3548 53.4359 34.6035C53.63 35.0456 53.9626 35.3496 54.4616 35.4049C54.9883 35.4601 55.4041 35.2391 55.709 34.8246C55.903 34.5759 55.9585 34.2719 55.9862 33.9403C55.9862 33.4706 55.903 33.0285 55.5981 32.6416C55.0437 31.9508 54.0735 32.0614 53.63 32.6416C53.3805 32.9732 53.2696 33.3324 53.2696 33.8574Z" fill="var(--fill-0, #D9D9D9)"/>
<path id="Vector_3" d="M42.4358 31.4769C42.6575 31.4769 42.8516 31.4769 43.0733 31.4769C43.4891 31.4769 43.9049 31.4769 44.3208 31.4769C44.5425 31.4769 44.7366 31.5321 44.9583 31.615C45.291 31.7532 45.5127 31.9742 45.6513 32.2782C45.8177 32.6927 45.8454 33.1348 45.6791 33.5493C45.5405 33.8809 45.3187 34.1296 44.986 34.2954C44.986 34.2954 44.9306 34.2953 44.9029 34.323C44.9029 34.323 44.8474 34.323 44.8197 34.3506C45.1524 34.9309 45.5127 35.4835 45.8731 36.0638C45.8454 36.0638 45.8177 36.0914 45.7899 36.0914C45.5959 36.0914 45.4019 36.0914 45.2355 36.0914C45.0969 36.0914 45.0138 36.0362 44.9306 35.9256C44.6811 35.5112 44.4316 35.1243 44.1822 34.7098C44.1822 34.6822 44.1267 34.6546 44.099 34.5993C44.0435 34.4888 43.9604 34.4611 43.8495 34.4611C43.6555 34.4611 43.4891 34.4611 43.2951 34.4611C43.1288 34.4611 43.1288 34.4611 43.1288 34.6269C43.1288 34.9862 43.1288 35.3454 43.1288 35.7322V35.9809C43.1288 35.9809 43.1288 36.0638 43.0456 36.0638C42.8516 36.0638 42.6298 36.0638 42.4358 36.0638C42.408 35.9256 42.3803 31.6427 42.4358 31.4492V31.4769ZM43.1288 33.7427C43.1288 33.7427 43.1842 33.7427 43.2119 33.7427C43.5723 33.7427 43.9327 33.7427 44.293 33.7427C44.6534 33.7151 44.8752 33.5216 44.986 33.1624C45.0415 32.8585 44.986 32.4164 44.5425 32.2782C44.4594 32.2506 44.3485 32.2229 44.2653 32.2229C43.9327 32.2229 43.6277 32.2229 43.2951 32.2229C43.1288 32.2229 43.1288 32.2229 43.1288 32.3887V33.6322C43.1288 33.6322 43.1288 33.7151 43.1288 33.7427Z" fill="var(--fill-0, #D9D9D9)"/>
<path id="Vector_4" d="M73.3184 31.5031H76.3122V32.2492C75.9241 32.2492 75.536 32.2492 75.1757 32.2492C74.7876 32.2492 74.4272 32.2492 74.0669 32.2492C74.0114 32.3873 74.0114 33.1887 74.0669 33.4097H76.035C76.035 33.4097 76.0905 33.9624 76.035 34.1558C75.8687 34.1558 75.7024 34.1558 75.536 34.1558H74.0391C74.0391 34.1558 73.9837 35.1782 74.0391 35.3716C74.2332 35.3716 74.4272 35.3716 74.5935 35.3716C74.7876 35.3716 74.9816 35.3716 75.1757 35.3716H76.3399C76.3399 35.6203 76.3399 35.8414 76.3399 36.1177C75.841 36.1177 75.3143 36.1177 74.8153 36.1177C74.3163 36.1177 73.8174 36.1177 73.2907 36.1177C73.263 36.0072 73.2352 31.6689 73.2907 31.4755L73.3184 31.5031Z" fill="var(--fill-0, #D9D9D9)"/>
<path id="Vector_5" d="M35.675 36.1233C35.4256 36.1233 35.2038 36.1233 34.9543 36.1233C34.9266 36.1233 34.8989 36.068 34.8711 36.0404C34.7603 35.764 34.6494 35.4877 34.5662 35.2114C34.5108 35.0456 34.5108 35.018 34.3167 35.018H32.7367C32.5703 35.018 32.5703 35.018 32.5149 35.1838C32.4317 35.4325 32.3209 35.7088 32.2377 35.9575C32.1823 36.0956 32.1545 36.1233 32.0159 36.1233C31.8496 36.1233 31.6833 36.1233 31.517 36.1233C31.517 36.1233 31.4892 36.1233 31.4615 36.1233C31.4615 36.068 31.4615 36.0127 31.4892 35.9851C31.711 35.4048 31.9328 34.8245 32.1545 34.2443C32.4595 33.4429 32.7644 32.6692 33.097 31.8679C33.1248 31.785 33.1525 31.7297 33.1802 31.6468C33.1802 31.564 33.2634 31.5087 33.3188 31.5087C33.4851 31.5087 33.6792 31.5087 33.8455 31.5087C33.8732 31.5087 33.9286 31.5916 33.9564 31.6192C34.095 31.9508 34.2059 32.31 34.3445 32.6416C34.788 33.7745 35.2038 34.9074 35.6473 36.0404C35.6473 36.0404 35.6473 36.0956 35.675 36.1509V36.1233ZM32.8475 34.2719C33.1248 34.2995 34.0673 34.2719 34.2059 34.2719C33.9841 33.6916 33.79 33.139 33.5683 32.5587H33.5406C33.3188 33.139 33.097 33.7193 32.8753 34.2995L32.8475 34.2719Z" fill="var(--fill-0, #D9D9D9)"/>
<path id="Vector_6" d="M13.8574 36.0914C13.8574 36.0914 13.7742 36.0914 13.7188 36.0914C13.5524 36.0914 13.3861 36.0914 13.2475 36.0914C13.1089 36.0914 13.1089 36.0914 13.0535 35.9533C12.9426 35.677 12.8594 35.4006 12.7486 35.0967C12.7208 35.0138 12.6654 34.9585 12.5822 34.9862C12.0278 34.9862 11.4734 34.9862 10.919 34.9862C10.7804 34.9862 10.7804 34.9862 10.725 35.1243C10.6141 35.4006 10.5309 35.677 10.42 35.9533C10.3923 36.0362 10.3369 36.0914 10.2537 36.0914C10.0597 36.0914 9.86562 36.0914 9.64386 36.0914C9.67158 35.9809 9.6993 35.9256 9.72702 35.8428C9.8379 35.5941 9.92107 35.3454 10.0319 35.0967C10.4478 34.019 10.8636 32.9137 11.2794 31.8361C11.3071 31.7532 11.3348 31.6427 11.3903 31.5598C11.3903 31.4769 11.4734 31.4492 11.5566 31.4492C11.6952 31.4492 11.8615 31.4492 12.0001 31.4492C12.0833 31.4492 12.111 31.4492 12.1664 31.5598C12.5822 32.6374 12.998 33.7427 13.4138 34.8204C13.5247 35.1519 13.6633 35.4559 13.8019 35.7599C13.8297 35.8428 13.8851 35.9533 13.8851 36.0638L13.8574 36.0914ZM11.7506 32.4993C11.6397 32.6651 11.113 34.1572 11.113 34.2677H12.4436C12.2496 33.6598 12.0001 33.1072 11.7783 32.4993H11.7506Z" fill="var(--fill-0, #D9D9D9)"/>
<path id="Vector_7" d="M3.16182 32.1682C3.02321 32.3616 2.85689 32.5274 2.69057 32.7485C2.63513 32.6932 2.60741 32.6656 2.55197 32.6103C2.35792 32.4169 2.10844 32.2511 1.83123 32.1958C1.35998 32.1129 0.944178 32.2511 0.639252 32.6103C0.389768 32.8866 0.278886 33.1906 0.251166 33.5498C0.251166 33.909 0.251166 34.2683 0.417488 34.6275C0.583811 34.9591 0.805575 35.2354 1.16594 35.3735C1.49859 35.5117 1.83123 35.4564 2.16388 35.2906C2.35792 35.2077 2.52425 35.0696 2.63513 34.9314C2.63513 34.9314 2.69057 34.9038 2.71829 34.8485C2.85689 35.0143 2.99549 35.1525 3.10638 35.3183C3.16182 35.3735 3.10638 35.4288 3.10638 35.4841C2.88461 35.7328 2.63513 35.9262 2.35792 36.0643C1.27682 36.5341 0.0848425 35.9538 -0.330965 34.9038C-0.386406 34.7104 -0.414126 34.5169 -0.497288 34.3235C-0.580449 34.0748 -0.580449 33.8261 -0.552729 33.5775C-0.497288 33.1077 -0.358685 32.6656 -0.0814803 32.2787C0.168004 31.9472 0.50065 31.6985 0.916457 31.5327C1.19366 31.4221 1.49859 31.3945 1.77579 31.4221C2.30248 31.505 2.77373 31.6985 3.10638 32.1129C3.10638 32.1129 3.10638 32.1129 3.10638 32.1682H3.16182Z" fill="var(--fill-0, #D9D9D9)"/>
<path id="Vector_8" d="M64.4475 32.2793C64.4475 32.2793 64.3089 32.2793 64.2534 32.2793C63.9485 32.2793 63.6436 32.2793 63.3386 32.2793C63.1723 32.2793 63.1723 32.2793 63.1723 32.1135V31.5885C63.1723 31.5885 66.2493 31.5332 66.4433 31.5885C66.4433 31.6714 66.4433 31.7266 66.4433 31.8095C66.4433 31.92 66.4433 32.0582 66.4433 32.1687C66.4433 32.2793 66.4433 32.2793 66.3325 32.2793C66.1107 32.2793 65.8889 32.2793 65.6672 32.2793C65.5008 32.2793 65.3622 32.2793 65.1959 32.3345V34.8767C65.1959 35.2912 65.1959 35.7056 65.1959 36.1478H64.4752C64.4752 36.1478 64.4752 36.0372 64.4752 35.9543V32.3069L64.4475 32.2793Z" fill="var(--fill-0, #D9D9D9)"/>
</g>
<path id="Vector_9" d="M42.903 7.63709C43.0676 7.60973 43.2048 7.52768 43.3145 7.41828C43.6712 7.06273 44.0828 6.78922 44.4121 6.40632C44.6041 6.18751 44.8511 6.07811 45.1254 5.99606C45.4821 5.88666 45.8388 5.83196 46.2229 5.88666C46.7443 5.96871 47.101 6.29691 47.3479 6.76187C47.4577 6.98068 47.54 7.19948 47.6223 7.41828C47.8143 7.80119 48.0064 8.15674 48.1985 8.53965C48.6924 9.49692 49.1314 10.4815 49.4881 11.4935C49.8173 12.3961 50.1466 13.2713 50.5581 14.1465C50.6953 14.42 50.8599 14.6661 51.1069 14.8576C51.4636 15.1585 51.7928 15.4593 52.177 15.7328C52.3141 15.8422 52.4513 15.9516 52.5885 16.061C52.9452 16.3892 53.3293 16.6901 53.7135 16.9909C54.3445 17.4832 54.9482 17.9755 55.5793 18.4679C55.9359 18.7687 56.3201 19.0422 56.6768 19.3157C56.8414 19.4251 57.006 19.5345 57.1432 19.6713C57.4176 19.9174 57.7468 20.0268 58.1035 20.0268C58.5425 20.0268 59.009 20.0268 59.448 20.0268C60.4083 20.0268 61.3686 20.0268 62.329 20.0268C63.2344 20.0268 64.1673 20.0815 65.0727 20.1089C65.5941 20.1089 66.1428 20.1909 66.6641 20.3003C66.9385 20.355 67.2129 20.4644 67.4598 20.5465C68.0909 20.7653 68.7494 20.9841 69.353 21.3123C70.3134 21.832 71.2462 22.379 72.1791 22.926C73.0571 23.4456 73.9077 23.9926 74.7308 24.567C75.1973 24.8952 75.6637 25.2508 76.0479 25.661C76.2399 25.8525 76.3771 26.0713 76.432 26.3174C76.6241 27.0285 76.2674 27.5482 75.6363 27.767C75.0875 27.9585 74.5662 27.8491 74.0723 27.6029C73.9077 27.5209 73.7431 27.3841 73.5785 27.2747C73.0023 26.8097 72.4535 26.3448 71.8773 25.8798C71.2737 25.3875 70.6975 24.9226 70.0939 24.4576C69.2707 23.8285 68.4201 23.2542 67.4873 22.7892C66.7464 22.4063 65.9782 22.1875 65.1825 22.1328C64.3594 22.0508 63.5362 22.0781 62.6856 22.0781C61.204 22.0781 59.6949 22.0781 58.2133 22.0781C57.8566 22.0781 57.5273 22.0234 57.1706 21.9961C57.0335 21.9961 56.8963 21.9414 56.7591 21.8593C56.4024 21.5858 56.0183 21.3397 55.6616 21.0661C54.0702 19.8354 52.4788 18.5773 50.8874 17.3465C50.3935 16.9636 49.8996 16.5533 49.3783 16.1431C48.9942 15.8422 48.7472 15.4593 48.5552 14.9944C47.9515 13.326 47.3205 11.6302 46.6071 10.0166C46.4425 9.60632 46.2504 9.22341 46.0309 8.8405C45.8937 8.567 45.8114 8.53965 45.5096 8.6764C45.3724 8.7311 45.2901 8.81315 45.2078 8.92256C45.0431 9.11401 44.8785 9.30546 44.7139 9.49692C44.3023 9.96187 43.8633 10.4268 43.3694 10.7824C43.2322 10.8644 43.095 10.9465 42.9579 11.0012C42.6286 11.1379 42.3542 11.0559 42.0798 10.8644C41.8603 10.7003 41.7231 10.4815 41.586 10.2627C41.3665 9.87982 41.2293 9.46956 41.0646 9.05931C40.5708 7.80119 40.022 6.57042 39.4184 5.367C39.3361 5.2029 39.1989 5.03879 39.0617 4.90204C38.8147 4.65589 38.5404 4.62854 38.266 4.84734C38.019 5.01144 37.827 5.2576 37.6898 5.50375C37.4703 5.83196 37.2782 6.18751 37.1136 6.54307C36.6746 7.39093 36.1807 8.21144 35.6594 9.00461C35.1655 9.77042 34.6716 10.5362 34.1777 11.302C33.9308 11.6576 33.7387 12.0405 33.5192 12.4234C33.1077 13.1072 32.5315 13.6815 31.873 14.1465C31.187 14.6114 30.4736 15.0491 29.7054 15.3226C29.3761 15.432 29.0469 15.514 28.7176 15.5961C28.1689 15.7328 27.6201 15.8969 27.0439 16.0337C26.4677 16.1978 25.8641 16.3619 25.2879 16.526C24.0806 16.8542 22.9008 17.2644 21.721 17.7294C21.1722 17.9482 20.6235 18.1944 20.1021 18.4132C19.7455 18.5773 19.3888 18.7414 19.0321 18.9055C18.6754 19.0696 18.3187 19.261 17.9894 19.4798C16.7547 20.1909 15.52 20.9294 14.2853 21.6405C13.4348 22.1328 12.5293 22.4884 11.5964 22.7345C10.7733 22.9807 9.97759 23.1721 9.15445 23.4183C7.28868 23.9379 5.47778 24.567 3.7492 25.4422C3.20044 25.7157 2.62425 25.9892 2.07549 26.2901C1.7188 26.4815 1.36211 26.7277 1.00542 26.9191C0.731041 27.0832 0.4841 27.22 0.182284 27.2747C-0.201845 27.3567 -0.531099 27.2473 -0.750602 26.9191C-1.05242 26.4815 -1.02498 26.0439 -0.750602 25.6063C-0.531099 25.2781 -0.201845 25.0593 0.0999709 24.8405C0.593852 24.5123 1.08773 24.2661 1.60905 24.0473C2.34987 23.7191 3.09069 23.3909 3.83151 23.0627C4.62721 22.7345 5.42291 22.461 6.24604 22.2149C7.42587 21.8593 8.63313 21.5038 9.81296 21.1482C10.6361 20.902 11.4318 20.6559 12.2275 20.3824C12.8311 20.1636 13.4073 19.8627 13.9561 19.5345C15.2731 18.7687 16.5627 18.0029 17.8797 17.2644C18.3736 16.9909 18.8949 16.7448 19.4162 16.4986C20.2119 16.1157 21.035 15.7602 21.8582 15.4867C22.4344 15.2952 23.038 15.1038 23.6142 14.9397C24.4648 14.6935 25.3153 14.4747 26.1659 14.2285C26.6872 14.0918 27.2085 13.955 27.7024 13.7636C29.2115 13.1619 30.5285 12.2867 31.6809 11.1379C32.0925 10.7277 32.4217 10.2354 32.751 9.77042C33.2997 8.94991 33.8485 8.12939 34.3972 7.30888C34.5619 7.06273 34.7265 6.78922 34.8637 6.51572C35.1929 5.80461 35.6045 5.1482 36.0435 4.51914C36.4002 3.97213 36.7843 3.45247 37.141 2.93281C37.2508 2.79606 37.3605 2.65931 37.4703 2.52255C37.6898 2.2764 37.9642 2.13965 38.2934 2.13965C38.6227 2.13965 38.9519 2.13965 39.3086 2.13965C39.5556 2.13965 39.7751 2.24905 39.9397 2.41315C40.2415 2.68666 40.4336 3.01486 40.6256 3.34307C40.7903 3.67127 40.9823 3.97213 41.2293 4.21828C41.3116 4.30033 41.3665 4.40973 41.4213 4.51914C41.8878 5.5311 42.3542 6.51572 42.8207 7.52768C42.8207 7.58238 42.8755 7.60973 42.903 7.66444V7.63709Z" fill="var(--fill-0, #D9D9D9)"/>
<path id="Vector_10" d="M19.4972 1.99658C18.8387 1.99658 18.1802 1.99658 17.5217 2.10598C16.5065 2.24274 15.5462 2.51624 14.6682 3.00855C14.2566 3.2547 13.8176 3.44615 13.406 3.63761C12.6926 3.99316 12.0616 4.51282 11.5128 5.05983C10.333 6.20855 9.45498 7.52137 8.82391 9.02564C8.71416 9.2718 8.60441 9.5453 8.49465 9.79145C8.19284 10.4205 8.05565 11.0769 8.02821 11.7607C8.02821 12.2256 8.02821 12.6633 8.08309 13.1009C8.19284 13.9487 8.3849 14.7692 8.65928 15.5897C8.82391 16.0547 9.04341 16.4923 9.31779 16.9026C9.53729 17.2308 9.72936 17.559 9.86655 17.9419C9.94886 18.1607 10.0037 18.4068 10.0037 18.6256C10.0037 19.118 9.6196 19.5009 9.12572 19.5009C8.60441 19.5009 8.24771 19.2821 7.9459 18.8718C7.67152 18.5162 7.47945 18.106 7.28739 17.6957C6.90326 16.7932 6.62888 15.8633 6.40938 14.906C6.27219 14.3316 6.16244 13.7299 6.10756 13.1556C6.05269 12.5812 6.05269 11.9795 6.10756 11.4051C6.16244 10.5299 6.3545 9.7094 6.65632 8.88889C6.95814 8.09573 7.34227 7.38462 7.78127 6.67351C8.30259 5.88034 8.85135 5.11453 9.48242 4.34872C10.3879 3.22735 11.5128 2.35214 12.8024 1.69573C13.5158 1.34017 14.2566 0.984616 14.9974 0.711111C15.7108 0.464957 16.4242 0.273504 17.165 0.164103C17.851 0.0820513 18.5643 0 19.2777 0C20.0734 0 20.8691 0.109402 21.6648 0.273504C23.2836 0.62906 24.7378 1.28547 26.0823 2.24274C27.1524 3.00855 28.0304 3.93846 28.7712 5.00513C29.2925 5.79829 29.7864 6.59145 30.1705 7.46667C30.3352 7.84957 30.4723 8.23248 30.5272 8.64274C30.5547 8.91624 30.5547 9.18975 30.5272 9.4359C30.4175 9.84616 30.1157 10.1197 29.6767 10.147C29.2376 10.1744 28.9358 10.0103 28.6889 9.6547C28.5243 9.40855 28.4145 9.10769 28.3322 8.83419C27.9206 7.54872 27.1798 6.42735 26.3018 5.41539C25.5884 4.59487 24.7653 3.85641 23.8324 3.2547C23.119 2.78974 22.3782 2.43419 21.5551 2.21539C21.2532 2.13333 20.924 2.07863 20.5947 2.05128C20.238 2.02393 19.8814 1.99658 19.5247 1.99658H19.4972Z" fill="var(--fill-0, #D9D9D9)"/>
<g id="Group_2">
<path id="Vector_11" d="M2.82548 38.9077H4.65503L8.50818 47.9158H6.45686L5.62525 45.8987H1.82754L0.995928 47.9158H-0.999947L2.8532 38.9077H2.82548ZM4.90452 44.1855L3.71254 41.2841L2.52055 44.1855H4.90452Z" fill="var(--fill-0, #D9D9D9)"/>
<path id="Vector_12" d="M9.87568 38.9934H13.9783C15.1149 38.9934 16.0019 39.2974 16.584 39.9053C17.083 40.4027 17.3602 41.0935 17.3602 41.9501C17.3602 43.4146 16.584 44.3265 15.4475 44.7409L17.6374 47.9463H15.3366L13.4239 45.1002H11.8716V47.9463H9.9034V39.0211L9.87568 38.9934ZM13.8397 43.3317C14.8099 43.3317 15.3643 42.8343 15.3643 42.0606C15.3643 41.1764 14.7822 40.7619 13.812 40.7619H11.8438V43.3317H13.8397Z" fill="var(--fill-0, #D9D9D9)"/>
<path id="Vector_13" d="M19.1286 38.9934H22.7877C24.9221 38.9934 26.225 40.2369 26.225 42.0882C26.225 44.1883 24.6172 45.266 22.5936 45.266H21.0967V47.9463H19.1286V39.0211V38.9934ZM22.6768 43.4975C23.6747 43.4975 24.2291 42.9172 24.2291 42.1435C24.2291 41.2316 23.6193 40.7619 22.6213 40.7619H21.0967V43.4975H22.6491H22.6768Z" fill="var(--fill-0, #D9D9D9)"/>
<path id="Vector_14" d="M27.2713 43.4685C27.2713 40.8987 29.2949 38.8263 32.0393 38.8263C34.7836 38.8263 36.7795 40.8711 36.7795 43.4132C36.7795 45.983 34.7559 48.0554 32.0115 48.0554C29.2672 48.0554 27.2713 46.0107 27.2713 43.4685ZM34.7281 43.4685C34.7281 41.9211 33.5916 40.6224 32.0115 40.6224C30.4315 40.6224 29.3226 41.8658 29.3226 43.4132C29.3226 44.9606 30.4592 46.2593 32.0393 46.2593C33.6193 46.2593 34.7281 45.0159 34.7281 43.4685Z" fill="var(--fill-0, #D9D9D9)"/>
<path id="Vector_15" d="M41.0564 38.9077H42.886L46.7391 47.9158H44.6878L43.8562 45.8987H40.0585L39.2269 47.9158H37.2033L41.0564 38.9077ZM43.1354 44.1855L41.9435 41.2841L40.7515 44.1855H43.1354Z" fill="var(--fill-0, #D9D9D9)"/>
<path id="Vector_16" d="M48.0955 38.9934H51.5883C54.4158 38.9934 56.3562 40.9277 56.3562 43.4422C56.3562 45.9844 54.4158 47.9463 51.5883 47.9463H48.0955V39.0211V38.9934ZM50.0636 40.7619V46.1502H51.5883C53.1961 46.1502 54.2772 45.0725 54.2772 43.4699C54.2772 41.8672 53.1683 40.7619 51.5883 40.7619H50.0636Z" fill="var(--fill-0, #D9D9D9)"/>
<path id="Vector_17" d="M57.6904 43.4685C57.6904 40.8987 59.714 38.8263 62.4583 38.8263C65.2027 38.8263 67.1985 40.8711 67.1985 43.4132C67.1985 45.983 65.1749 48.0554 62.4306 48.0554C59.6863 48.0554 57.6904 46.0107 57.6904 43.4685ZM65.1749 43.4685C65.1749 41.9211 64.0384 40.6224 62.4583 40.6224C60.8783 40.6224 59.7694 41.8658 59.7694 43.4132C59.7694 44.9606 60.906 46.2593 62.4861 46.2593C64.0661 46.2593 65.1749 45.0159 65.1749 43.4685Z" fill="var(--fill-0, #D9D9D9)"/>
<path id="Vector_18" d="M68.9583 38.9934H73.0609C74.1974 38.9934 75.0845 39.2974 75.6666 39.9053C76.1656 40.4027 76.4428 41.0935 76.4428 41.9501C76.4428 43.4146 75.6666 44.3265 74.5301 44.7409L76.72 47.9463H74.4192L72.5065 45.1002H70.9541V47.9463H68.986V39.0211L68.9583 38.9934ZM72.9223 43.3317C73.8925 43.3317 74.4469 42.8343 74.4469 42.0606C74.4469 41.1764 73.8648 40.7619 72.8946 40.7619H70.9264V43.3317H72.9223Z" fill="var(--fill-0, #D9D9D9)"/>
</g>
</g>
<defs>
<clipPath id="clip0_3914_37">
<rect width="77.7313" height="48" fill="white"/>
</clipPath>
</defs>
</svg>
