<svg width="88" height="47" viewBox="0 0 88 47" fill="none" xmlns="http://www.w3.org/2000/svg">
<path d="M18.0846 0.71458C17.7508 0.71458 17.4797 0.985682 17.4797 1.31955V16.4278C17.4797 17.77 16.3913 18.8597 15.0478 18.8597H11.2017C9.85961 18.8597 8.76989 17.7713 8.76989 16.4278V1.31955C8.76989 0.985682 8.49879 0.71458 8.16493 0.71458H0.604958C0.271096 0.71458 0 0.985682 0 1.31955V17.2785C0 22.6017 4.31483 26.9167 9.63793 26.9167H16.605C21.9281 26.9167 26.2429 22.6017 26.2429 17.2785V1.31955C26.2429 0.985682 25.9718 0.71458 25.6379 0.71458H18.0846Z" fill="#D9D9D9"/>
<path d="M79.5308 0.71458C79.197 0.71458 78.9259 0.985682 78.9259 1.31955V16.4278C78.9259 17.77 77.8375 18.8597 76.494 18.8597H72.6479C71.3058 18.8597 70.2161 17.7713 70.2161 16.4278V1.31955C70.2161 0.985682 69.945 0.71458 69.6111 0.71458H62.0538C61.72 0.71458 61.4489 0.985682 61.4489 1.31955V17.2785C61.4489 22.6017 65.7637 26.9167 71.0868 26.9167H78.0538C83.3769 26.9167 87.6918 22.6017 87.6918 17.2785V1.31955C87.6918 0.985682 87.4207 0.71458 87.0868 0.71458H79.5308Z" fill="#D9D9D9"/>
<path d="M47.5135 14.9493C47.5135 17.4534 45.4836 19.4833 42.9797 19.4833H42.1023C39.5983 19.4833 37.5684 17.4534 37.5684 14.9493V11.9806C37.5684 9.47655 39.5983 7.44663 42.1023 7.44663H42.9797C45.4836 7.44663 47.5135 9.47655 47.5135 11.9806V14.9493ZM58.6672 19.076H57.2316C56.7094 19.076 56.2861 18.6526 56.2861 18.1305V1.31945C56.2861 0.985583 56.015 0.714481 55.6811 0.714481H48.0717C47.7365 0.714481 47.4641 0.988254 47.4668 1.32346C47.4788 3.113 47.6658 5.64774 47.6658 5.65308C47.6658 5.70917 47.6204 5.75458 47.5643 5.75458C47.5082 5.75458 47.4828 5.69982 47.4641 5.66109C47.4641 5.66109 45.3648 0 39.0909 0H37.7113C32.7314 0 28.6944 4.03582 28.6944 9.01715V17.9141C28.6944 22.8941 32.7301 26.9313 37.7113 26.9313H39.0909C45.9497 26.9313 47.6724 20.3473 47.6724 20.3473C47.6845 20.3046 47.7259 20.2739 47.7726 20.2739C47.8915 20.2739 47.8701 20.4115 47.8701 20.4315C47.8647 20.8108 47.8193 20.8735 47.8193 21.5239C47.8193 23.1906 48.3722 24.5074 49.478 25.4769C50.5824 26.4465 52.2744 26.9299 54.5527 26.9299H58.6672C59.001 26.9299 59.2721 26.6588 59.2721 26.3249V19.6823C59.2721 19.3484 59.001 19.0773 58.6672 19.0773V19.076Z" fill="#D9D9D9"/>
<path d="M49.5311 41.1716L44.0571 46.6443H49.0503L54.523 41.1716H49.5311Z" fill="#BCBCBC"/>
<path d="M55.5599 35.1428L53.3964 37.3076L55.0791 40.6142L60.5544 35.1414H55.5599V35.1428Z" fill="#BCBCBC"/>
<path fill-rule="evenodd" clip-rule="evenodd" d="M41.5388 35.143H45.7174L43.8919 46.6414H39.7146L41.5388 35.143Z" fill="#D9D9D9"/>
<path fill-rule="evenodd" clip-rule="evenodd" d="M34.1103 42.487L33.9047 40.3796C33.8579 39.8828 33.878 39.1349 33.8886 38.6007H33.7177L32.2861 42.487H34.1103ZM26.2312 46.6443L32.0471 35.1445H36.6691L38.958 46.6443H34.5283L34.3707 45.21H31.2137L30.6475 46.6443H30.6502H26.2312Z" fill="#D9D9D9"/>
<path fill-rule="evenodd" clip-rule="evenodd" d="M47.2974 35.1414H52.2906L55.0804 40.6156H50.0872L47.2974 35.1414Z" fill="#D9D9D9"/>
<path fill-rule="evenodd" clip-rule="evenodd" d="M65.3477 42.487L65.142 40.3796C65.0953 39.8828 65.1153 39.1349 65.126 38.6007H64.9551L63.5235 42.487H65.3477ZM57.4712 46.6443L63.2871 35.1445H67.9091L70.198 46.6443H65.7683L65.6108 45.21H62.4538L61.8875 46.6443H61.8902H57.4712Z" fill="#D9D9D9"/>
<path fill-rule="evenodd" clip-rule="evenodd" d="M26.8752 39.8008C26.3089 39.1812 25.5504 38.6443 24.6076 38.6443C23.3536 38.6443 22.1797 39.6339 21.9754 40.8866C21.7818 42.1566 22.7086 43.1288 23.9572 43.1288C24.9187 43.1288 25.7427 42.7229 26.5213 42.0658L25.7133 46.3714C24.9895 46.6866 23.415 46.8241 22.6658 46.8241C19.3887 46.8241 17.2292 44.2747 17.7474 40.9988C18.2762 37.636 21.3424 34.953 24.7144 34.953C25.6599 34.953 26.6134 35.1293 27.4454 35.4258L26.8752 39.8062V39.8008Z" fill="#D9D9D9"/>
<path fill-rule="evenodd" clip-rule="evenodd" d="M51.2168 44.4782L54.523 41.1716L57.3118 46.6443H52.3199L51.2168 44.4795V44.4782Z" fill="#D9D9D9"/>
</svg>
