<svg preserveAspectRatio="none" width="100%" height="100%" overflow="visible" style="display: block;" viewBox="0 0 88 47" fill="none" xmlns="http://www.w3.org/2000/svg">
<g id="Camada 1">
<path id="Vector" d="M25.6367 0.7146H18.0848C17.7509 0.7146 17.4798 0.985702 17.4798 1.31957V16.4278C17.4798 17.77 16.3914 18.8597 15.0479 18.8597H11.2019C9.85973 18.8597 8.77 17.7713 8.77 16.4278V1.31957C8.77 0.985702 8.4989 0.7146 8.16504 0.7146H0.605072C0.27121 0.7146 0.000113666 0.985702 0.000113666 1.31957V17.2785C0.000113666 22.6017 4.31495 26.9167 9.63804 26.9167H16.6051C21.9282 26.9167 26.243 22.6017 26.243 17.2785V1.31957C26.243 0.985702 25.9719 0.7146 25.638 0.7146H25.6367Z" fill="var(--fill-0, #D9D9D9)"/>
<path id="Vector_2" d="M87.0829 0.7146H79.531C79.1971 0.7146 78.926 0.985702 78.926 1.31957V16.4278C78.926 17.77 77.8376 18.8597 76.4941 18.8597H72.6481C71.3059 18.8597 70.2162 17.7713 70.2162 16.4278V1.31957C70.2162 0.985702 69.9451 0.7146 69.6112 0.7146H62.0539C61.7201 0.7146 61.449 0.985702 61.449 1.31957V17.2785C61.449 22.6017 65.7638 26.9167 71.0869 26.9167H78.0539C83.377 26.9167 87.6919 22.6017 87.6919 17.2785V1.31957C87.6919 0.985702 87.4208 0.7146 87.0869 0.7146H87.0842H87.0829Z" fill="var(--fill-0, #D9D9D9)"/>
<path id="Vector_3" d="M47.5136 14.9494C47.5136 17.4534 45.4838 19.4833 42.9798 19.4833H42.1024C39.5984 19.4833 37.5686 17.4534 37.5686 14.9494V11.9806C37.5686 9.47657 39.5984 7.44665 42.1024 7.44665H42.9798C45.4838 7.44665 47.5136 9.47657 47.5136 11.9806V14.9494ZM58.6673 19.076H57.2317C56.7095 19.076 56.2862 18.6526 56.2862 18.1305V1.31947C56.2862 0.985603 56.0151 0.714501 55.6812 0.714501H48.0719C47.7367 0.714501 47.4642 0.988274 47.4669 1.32348C47.4789 3.11302 47.6659 5.64776 47.6659 5.6531C47.6659 5.70919 47.6205 5.7546 47.5644 5.7546C47.5083 5.7546 47.4829 5.69984 47.4642 5.66111C47.4642 5.66111 45.3649 1.98743e-05 39.091 1.98743e-05H37.7114C32.7316 1.98743e-05 28.6945 4.03583 28.6945 9.01717V17.9141C28.6945 22.8941 32.7302 26.9313 37.7114 26.9313H39.091C45.9498 26.9313 47.6726 20.3474 47.6726 20.3474C47.6846 20.3046 47.726 20.2739 47.7727 20.2739C47.8916 20.2739 47.8702 20.4115 47.8702 20.4315C47.8649 20.8108 47.8195 20.8735 47.8195 21.5239C47.8195 23.1906 48.3723 24.5074 49.4781 25.4769C50.5825 26.4465 52.2745 26.9299 54.5528 26.9299H58.6673C59.0012 26.9299 59.2723 26.6588 59.2723 26.325V19.6823C59.2723 19.3484 59.0012 19.0773 58.6673 19.0773V19.076Z" fill="var(--fill-0, #D9D9D9)"/>
<path id="Vector_4" d="M49.5312 41.1716L44.0572 46.6444H49.0504L54.5231 41.1716H49.5312Z" fill="var(--fill-0, #BCBCBC)"/>
<path id="Vector_5" d="M55.56 35.1428L53.3965 37.3076L55.0792 40.6142L60.5545 35.1415H55.56V35.1428Z" fill="var(--fill-0, #BCBCBC)"/>
<path id="Vector_6" fill-rule="evenodd" clip-rule="evenodd" d="M41.5389 35.143H45.7175L43.892 46.6415H39.7147L41.5389 35.143Z" fill="var(--fill-0, #D9D9D9)"/>
<path id="Vector_7" fill-rule="evenodd" clip-rule="evenodd" d="M34.1104 42.487L33.9048 40.3796C33.8581 39.8828 33.8781 39.135 33.8888 38.6008H33.7178L32.2862 42.487H34.1104ZM30.649 46.6443H26.2313L32.0472 35.1445H36.6692L38.9581 46.6443H34.5284L34.3709 45.21H31.2139L30.6476 46.6443H30.6503H30.649Z" fill="var(--fill-0, #D9D9D9)"/>
<path id="Vector_8" fill-rule="evenodd" clip-rule="evenodd" d="M47.2975 35.1415H52.2908L55.0805 40.6156H50.0873L47.2975 35.1415Z" fill="var(--fill-0, #D9D9D9)"/>
<path id="Vector_9" fill-rule="evenodd" clip-rule="evenodd" d="M65.3478 42.487L65.1421 40.3796C65.0954 39.8828 65.1154 39.135 65.1261 38.6008H64.9552L63.5236 42.487H65.3478ZM61.889 46.6443H57.4713L63.2872 35.1445H67.9092L70.1981 46.6443H65.7685L65.6109 45.21H62.4539L61.8876 46.6443H61.8903H61.889Z" fill="var(--fill-0, #D9D9D9)"/>
<path id="Vector_10" fill-rule="evenodd" clip-rule="evenodd" d="M26.8753 39.8008C26.3091 39.1812 25.5505 38.6443 24.6077 38.6443C23.3537 38.6443 22.1799 39.6339 21.9755 40.8866C21.7819 42.1566 22.7087 43.1289 23.9573 43.1289C24.9189 43.1289 25.7428 42.7229 26.5214 42.0658L25.7134 46.3714C24.9896 46.6866 23.4151 46.8241 22.666 46.8241C19.3888 46.8241 17.2293 44.2747 17.7475 40.9988C18.2763 37.636 21.3425 34.9531 24.7145 34.9531C25.66 34.9531 26.6135 35.1293 27.4455 35.4258L26.8753 39.8062V39.8008Z" fill="var(--fill-0, #D9D9D9)"/>
<path id="Vector_11" fill-rule="evenodd" clip-rule="evenodd" d="M51.2169 44.4782L54.5221 41.1716L57.3119 46.6444H52.32L51.2169 44.4796V44.4782Z" fill="var(--fill-0, #D9D9D9)"/>
</g>
</svg>
