<svg width="100" height="88" viewBox="0 0 100 88" fill="none" xmlns="http://www.w3.org/2000/svg">
<path d="M35.0981 4.69131H43.643V9.04752H47.8317V18.7652H51.7718V9.04752H55.9605V4.69131H64.5054V0H88.8809V26.8886H86.5352V28.3157H99.604V64.4194H96.2531V74.3047H92.5671V78.4934H86.8705V83.6874H80.3361V87.3734H19.2678V83.6874H12.7336V78.4934H7.03697V74.3047H3.35093V64.4194H0V28.3157H13.0683V26.8886H10.7226V0H35.0981V4.69131Z" fill="#2E4899"/>
<path fill-rule="evenodd" clip-rule="evenodd" d="M11.8392 41.9554H37.5656V46.0443H45.7435V50.1333H52.8992V46.0443H61.0771V41.9554H86.8036V37.5257H90.8926V56.0964H87.4851V66.1485H83.7369V70.4078H77.9442V75.6894H71.2996V79.4376H54.2623V75.6894H44.3805V79.4376H27.3431V75.6894H20.6986V70.4078H14.9059V66.1485H11.1577V56.0964H7.75019V37.5257H11.8392V41.9554ZM18.6538 59.3334H22.7755V63.9336H28.0748V67.3411H43.1876V58.8224H38.2808V56.4371H33.3741V52.6889H18.6538V59.3334ZM66.9719 56.4371H62.0652V58.8224H57.1584V67.3411H72.2712V63.9336H77.5705V59.3334H81.6922V52.6889H66.9719V56.4371Z" fill="#64C5E5"/>
<path d="M57.2806 35.5375H53.5323V39.2857H61.0288V35.5375H69.2067V31.1078H74.1476V27.3595H78.4069V22.5891H74.8291V17.4779H80.7921V8.27768H74.1476V13.0481H65.4585V17.4779H61.1992V27.3595H57.2806V35.5375Z" fill="#64C5E5"/>
<path d="M42.6437 35.6131H46.3919V39.3614H38.8955V35.6131H30.7176V31.1834H25.7767V27.4352H21.5174V22.6647H25.0952V17.5535H19.1321V8.35334H25.7767V13.1238H34.4658V17.5535H38.7251V27.4352H42.6437V35.6131Z" fill="#64C5E5"/>
</svg>
