<svg width="108" height="108" viewBox="0 0 108 108" fill="none" xmlns="http://www.w3.org/2000/svg">
<path d="M107.467 53.7337C107.467 83.4101 83.4101 107.467 53.7337 107.467C24.0574 107.467 0 83.4101 0 53.7337C0 24.0574 24.0574 0 53.7337 0C83.4101 0 107.467 24.0574 107.467 53.7337Z" fill="#CAEF7E"/>
<path d="M81.0674 53.7521C81.0674 69.3981 68.3837 82.0817 52.7377 82.0817C37.0917 82.0817 24.4081 69.3981 24.4081 53.7521C24.4081 38.1061 37.0917 25.4225 52.7377 25.4225C68.3837 25.4225 81.0674 38.1061 81.0674 53.7521Z" fill="#D62A6F"/>
<path d="M40.0843 51.6387V58.9611L57.5697 58.8472V65.8025H74.0631V50.8124H65.5143V44.1634H31.5269V51.6387H40.0843Z" fill="#1E1E1E"/>
<path d="M61.9769 50.8576V44.7299H64.526V45.9391H63.2841V47.2218H64.3953V48.2921H63.2841V49.6729H64.6077V50.8576H61.9769Z" fill="#EDEDED"/>
<path d="M59.1002 50.8578V45.9393H58.0217V44.7301H61.486V45.9393H60.4075V50.8578H59.1002Z" fill="#EDEDED"/>
<path d="M54.1718 49.1341V46.4706C54.1718 45.3513 54.9644 44.6486 55.9856 44.6486C57.0069 44.6486 57.7994 45.3513 57.7994 46.4706V49.1341C57.7994 50.2535 57.0069 50.9561 55.9856 50.9561C54.9644 50.9561 54.1718 50.2535 54.1718 49.1341ZM56.435 49.0606V46.4624C56.435 46.103 56.2553 45.8578 55.9938 45.8578C55.7242 45.8578 55.5363 46.1111 55.5363 46.4624V49.0606C55.5363 49.4855 55.7078 49.7469 55.9856 49.7469C56.2634 49.7469 56.435 49.4855 56.435 49.0606Z" fill="#EDEDED"/>
<path d="M51.3873 45.9388V47.3441H51.6732C51.9837 47.3441 52.1961 47.0418 52.1961 46.6169C52.1961 46.2002 51.9919 45.9388 51.6732 45.9388H51.3873ZM51.6651 48.2918H51.3873V50.8573H50.08V44.7296H51.7876C52.9233 44.7296 53.4789 45.2443 53.4789 46.38C53.4789 47.1398 53.2338 47.581 52.719 47.7118V47.8016C53.3563 48.0467 53.5442 48.3245 53.5442 49.7952C53.5442 50.1057 53.5442 50.3671 53.6178 50.8573H52.3105C52.2533 50.7348 52.2043 50.0648 52.2043 49.3213C52.2043 48.4553 52.139 48.2918 51.6651 48.2918Z" fill="#EDEDED"/>
<path d="M48.2653 50.8572L48.0937 49.4356H47.3747L47.2031 50.8572H45.855L46.8845 44.7295H48.5921L49.6134 50.8572H48.2653ZM47.5054 48.349H47.963L47.775 46.6495H47.6933L47.5054 48.349Z" fill="#EDEDED"/>
<path d="M42.449 50.8577L41.9016 47.5079H41.7709L41.918 50.8577H40.5699V44.73H42.302L42.8739 48.2922H43.0046L43.5847 44.73H45.325V50.8577H43.9769L44.124 47.4262H43.9932L43.4295 50.8577H42.449Z" fill="#EDEDED"/>
<path d="M38.7306 50.8578L38.559 49.4361H37.84L37.6684 50.8578H36.3203L37.3498 44.73H39.0574L40.0787 50.8578H38.7306ZM37.9707 48.3495H38.4282L38.2403 46.6501H38.1586L37.9707 48.3495Z" fill="#EDEDED"/>
<path d="M34.3473 50.9471C33.1953 50.9471 32.5253 50.2445 32.5253 49.0271V46.4371C32.5253 45.3668 33.277 44.6478 34.3881 44.6478C35.4911 44.6478 36.1529 45.3668 36.1529 46.5678V47.197H34.7885V46.5678C34.7885 46.1267 34.6577 45.857 34.3554 45.857C34.0531 45.857 33.8897 46.1267 33.8897 46.5678V49.0516C33.8897 49.4765 34.045 49.7379 34.3391 49.7379C34.6251 49.7379 34.7721 49.4765 34.7721 49.0516V47.9731H36.1529V48.6758C36.1529 50.1873 35.5565 50.9471 34.3473 50.9471Z" fill="#EDEDED"/>
<path d="M70.6928 52.9449V54.3501H70.9787C71.2892 54.3501 71.5016 54.0478 71.5016 53.623C71.5016 53.2063 71.2974 52.9449 70.9787 52.9449H70.6928ZM70.9706 55.2979H70.6928V57.8634H69.3855V51.7356H71.0931C72.2288 51.7356 72.7844 52.2504 72.7844 53.386C72.7844 54.1459 72.5393 54.5871 72.0245 54.7178V54.8077C72.6618 55.0528 72.8497 55.3306 72.8497 56.8012C72.8497 57.1117 72.8497 57.3731 72.9233 57.8634H71.616C71.5588 57.7408 71.5098 57.0709 71.5098 56.3274C71.5098 55.4613 71.4444 55.2979 70.9706 55.2979Z" fill="#EDEDED"/>
<path d="M65.2829 56.1394V53.4759C65.2829 52.3566 66.0754 51.6539 67.0967 51.6539C68.118 51.6539 68.9105 52.3566 68.9105 53.4759V56.1394C68.9105 57.2588 68.118 57.9614 67.0967 57.9614C66.0754 57.9614 65.2829 57.2588 65.2829 56.1394ZM67.5461 56.0659V53.4678C67.5461 53.1083 67.3663 52.8632 67.1049 52.8632C66.8353 52.8632 66.6474 53.1164 66.6474 53.4678V56.0659C66.6474 56.4908 66.8189 56.7522 67.0967 56.7522C67.3745 56.7522 67.5461 56.4908 67.5461 56.0659Z" fill="#EDEDED"/>
<path d="M61.2554 57.8631V51.7353H63.249C64.2703 51.7353 64.8177 52.5197 64.8177 53.5573V56.0901C64.8177 57.1359 64.254 57.8631 62.9467 57.8631H61.2554ZM63.0039 56.6702C63.3225 56.6702 63.4533 56.3761 63.4533 55.9267V53.7125C63.4533 53.255 63.3225 52.9445 63.0039 52.9445H62.5627V56.6702H63.0039Z" fill="#EDEDED"/>
<path d="M59.4162 57.8627L59.2447 56.4411H58.5257L58.3541 57.8627H57.006L58.0355 51.735H59.7431L60.7643 57.8627H59.4162ZM58.6564 55.3544H59.1139L58.926 53.655H58.8443L58.6564 55.3544Z" fill="#EDEDED"/>
<path d="M53.1233 56.1394V53.4759C53.1233 52.3566 53.9158 51.6539 54.9371 51.6539C55.9584 51.6539 56.7509 52.3566 56.7509 53.4759V56.1394C56.7509 57.2587 55.9584 57.9614 54.9371 57.9614C53.9158 57.9614 53.1233 57.2587 53.1233 56.1394ZM55.3865 56.0659V53.4677C55.3865 53.1082 55.2067 52.8631 54.9453 52.8631C54.6757 52.8631 54.4878 53.1164 54.4878 53.4677V56.0659C54.4878 56.4907 54.6593 56.7522 54.9371 56.7522C55.2149 56.7522 55.3865 56.4907 55.3865 56.0659Z" fill="#EDEDED"/>
<path d="M49.2237 57.8634V51.7357H50.9721C52.0506 51.7357 52.7042 52.2749 52.7042 53.6394C52.7042 54.9221 52.1241 55.4123 51.1927 55.4123H50.5309V57.8634H49.2237ZM50.5309 52.9449V54.4482H50.727C51.1764 54.4482 51.3398 54.2521 51.3398 53.6966C51.3398 53.1492 51.1764 52.9449 50.727 52.9449H50.5309Z" fill="#EDEDED"/>
<path d="M46.3573 52.9445V54.3497H46.6433C46.9537 54.3497 47.1662 54.0474 47.1662 53.6226C47.1662 53.2059 46.9619 52.9445 46.6433 52.9445H46.3573ZM46.6351 55.2975H46.3573V57.863H45.0501V51.7353H46.7576C47.8933 51.7353 48.4489 52.25 48.4489 53.3857C48.4489 54.1455 48.2038 54.5867 47.6891 54.7174V54.8073C48.3263 55.0524 48.5143 55.3302 48.5143 56.8008C48.5143 57.1113 48.5143 57.3728 48.5878 57.863H47.2805C47.2234 57.7404 47.1743 57.0705 47.1743 56.327C47.1743 55.4609 47.109 55.2975 46.6351 55.2975Z" fill="#EDEDED"/>
<path d="M43.2353 57.8629L43.0637 56.4413H42.3447L42.1731 57.8629H40.825L41.8545 51.7352H43.5621L44.5834 57.8629H43.2353ZM42.4754 55.3546H42.933L42.7451 53.6552H42.6634L42.4754 55.3546Z" fill="#EDEDED"/>
<path d="M71.2758 58.6587C72.3053 58.6587 72.9017 59.3041 72.9017 60.3091H71.6925C71.6925 59.9823 71.5128 59.7617 71.2595 59.7617C70.9654 59.7617 70.851 60.0885 70.851 60.3908V61.2405H70.9164C71.1778 60.8974 71.4393 60.7094 71.8804 60.7094C72.5667 60.7094 73.0243 61.1506 73.0243 61.8778V63.2667C73.0243 64.3534 72.3952 64.9498 71.3249 64.9498C70.2219 64.9498 69.6091 64.3207 69.6091 63.0952V60.7176C69.6091 59.443 70.1483 58.6587 71.2758 58.6587ZM71.3249 61.7389C71.0798 61.7389 70.8755 61.9595 70.8755 62.2128V63.3158C70.8755 63.6017 71.0716 63.8223 71.3249 63.8223C71.5781 63.8223 71.7661 63.6099 71.7661 63.3158V62.2128C71.7661 61.9513 71.5618 61.7389 71.3249 61.7389Z" fill="#EDEDED"/>
<path d="M67.8233 60.6112C67.8233 60.0801 67.7171 59.8677 67.4638 59.8677C67.186 59.8677 67.0716 60.072 67.0716 60.5704V61.0197H65.8379V60.3661C65.8379 59.2713 66.4507 58.6585 67.4883 58.6585C68.6566 58.6585 69.106 59.4265 69.106 60.4805C69.106 61.6815 68.5259 62.2044 67.3821 63.5934V63.6669H69.1632V64.8679H65.8297V63.7241C65.9359 63.5443 66.1075 63.3156 66.6468 62.6456C67.6762 61.3955 67.8233 61.2158 67.8233 60.6112Z" fill="#EDEDED"/>
<path d="M62.1106 63.1442V60.4807C62.1106 59.3614 62.8541 58.6587 63.8345 58.6587C64.7904 58.6587 65.5339 59.3614 65.5339 60.4807V63.1442C65.5339 64.2636 64.7904 64.9662 63.8345 64.9662C62.8541 64.9662 62.1106 64.2636 62.1106 63.1442ZM64.2675 62.989V60.636C64.2675 60.1784 64.1368 59.868 63.8182 59.868C63.4995 59.868 63.3688 60.1784 63.3688 60.636V62.989C63.3688 63.4465 63.4995 63.757 63.8182 63.757C64.1368 63.757 64.2675 63.4465 64.2675 62.989Z" fill="#EDEDED"/>
<path d="M60.4268 60.6109C60.4268 60.0798 60.3206 59.8674 60.0673 59.8674C59.7895 59.8674 59.6751 60.0717 59.6751 60.5701V61.0194H58.4414V60.3658C58.4414 59.271 59.0542 58.6582 60.0918 58.6582C61.2602 58.6582 61.7095 59.4262 61.7095 60.4802C61.7095 61.6812 61.1295 62.2041 59.9856 63.5931V63.6666H61.7667V64.8676H58.4333V63.7238C58.5395 63.5441 58.7111 63.3153 59.2503 62.6453C60.2797 61.3953 60.4268 61.2155 60.4268 60.6109Z" fill="#EDEDED"/>
<path d="M88.0829 58.9432C88.1923 58.133 88.5106 57.5339 89.0377 57.1459C89.5715 56.7666 90.2664 56.6347 91.1224 56.7503L94.7569 57.241C95.1314 57.2915 95.4633 57.3986 95.7525 57.5622C96.0484 57.7344 96.2878 57.9497 96.4709 58.2079C96.6616 58.4671 96.7964 58.7655 96.8753 59.103C96.9543 59.4405 96.9675 59.8042 96.9148 60.194C96.8096 60.9737 96.4906 61.5493 95.9579 61.921C95.4251 62.2927 94.7346 62.4213 93.8861 62.3067L93.0033 62.1875L93.2618 60.2729L94.1447 60.3921C94.458 60.4344 94.7093 60.4177 94.8986 60.3421C95.0867 60.2741 95.1953 60.1331 95.2242 59.9191C95.2531 59.7051 95.1873 59.5289 95.027 59.3905C94.8657 59.2597 94.6283 59.1732 94.3149 59.1309L90.8295 58.6603C90.5314 58.62 90.2873 58.6416 90.097 58.7248C89.9144 58.8091 89.8092 58.9545 89.7813 59.1609C89.7545 59.3596 89.8184 59.52 89.9732 59.642C90.1345 59.7728 90.3643 59.8583 90.6623 59.8985L92.1757 60.1029L91.9141 62.0405L90.9281 61.9074C88.8033 61.6205 87.8549 60.6324 88.0829 58.9432Z" fill="#D62A6F"/>
<path d="M88.8928 64.9797L89.1781 64.0023L87.3137 63.2051L87.8485 61.3727L95.7695 65.2029L95.0921 67.524L86.3576 66.4814L86.8923 64.6489L88.8928 64.9797ZM90.4218 65.233L92.8064 65.6518L92.8388 65.5407L90.6033 64.6111L90.4218 65.233Z" fill="#D62A6F"/>
<path d="M89.5821 70.5784L89.6646 70.4127L85.325 68.4862L86.1754 66.7772L93.9439 70.6422L92.8513 72.8381L87.9745 71.3163L87.8921 71.482L92.0423 74.4643L90.9446 76.6706L83.1761 72.8055L84.0264 71.0965L88.284 73.4473L88.3664 73.2816L84.3717 70.4025L84.9901 69.1595L89.5821 70.5784Z" fill="#D62A6F"/>
<path d="M82.6932 76.8768L83.3005 76.0597L81.8296 74.664L82.9681 73.1318L89.0633 79.4771L87.6211 81.4179L79.794 77.4034L80.9325 75.8712L82.6932 76.8768ZM84.0387 77.646L86.1289 78.8677L86.1979 78.7748L84.4251 77.126L84.0387 77.646Z" fill="#D62A6F"/>
<path d="M80.7842 81.4888L78.235 78.9006L79.5538 77.6017L85.6426 83.7836L83.9199 85.4803C83.3429 86.0486 82.7817 86.3361 82.2363 86.3429C81.6962 86.3552 81.1421 86.0728 80.5738 85.4958C79.8215 84.732 79.6359 84.0325 80.0171 83.3973L79.9278 83.3066C79.7089 83.4031 79.5066 83.4616 79.321 83.482C79.1354 83.5133 78.942 83.4873 78.7408 83.404C78.5341 83.326 78.3034 83.1852 78.0486 82.9815C77.7938 82.7778 77.4824 82.4891 77.1144 82.1154C76.9629 81.9615 76.8059 81.8077 76.6434 81.6537C76.4864 81.5053 76.2668 81.3263 75.9848 81.117L77.3036 79.818C77.3526 79.8347 77.4286 79.8844 77.5316 79.967C77.6346 80.0496 77.7592 80.1542 77.9055 80.2807C78.0572 80.4128 78.2197 80.5612 78.393 80.7262C78.5717 80.8966 78.753 81.0752 78.937 81.2621C79.1535 81.4819 79.3322 81.6523 79.4731 81.7733C79.6194 81.8999 79.7469 81.9799 79.8558 82.0135C79.97 82.0525 80.0764 82.0506 80.1749 82.0077C80.2734 81.9649 80.3831 81.8839 80.5039 81.7648L80.7842 81.4888ZM81.7259 82.4449L81.4374 82.7291C81.2781 82.886 81.2193 83.0792 81.2612 83.3086C81.2976 83.5434 81.4214 83.7679 81.6324 83.9822C81.8381 84.191 82.0499 84.3072 82.2679 84.3306C82.4858 84.365 82.6744 84.3037 82.8338 84.1468L83.1223 83.8626L81.7259 82.4449Z" fill="#D62A6F"/>
<path d="M79.2981 86.3946C79.5298 86.7125 79.6858 87.0378 79.7661 87.3706C79.851 87.7096 79.8658 88.0376 79.8106 88.3547C79.7553 88.6717 79.6371 88.9679 79.456 89.2431C79.2731 89.5291 79.0352 89.7788 78.7423 89.9924C78.4494 90.2059 78.1419 90.3536 77.8199 90.4356C77.4962 90.5284 77.175 90.5526 76.8563 90.5081C76.5375 90.4637 76.2298 90.3492 75.933 90.1646C75.6408 89.9863 75.3788 89.7382 75.1471 89.4204L72.9255 86.3726C72.6938 86.0547 72.5355 85.7262 72.4507 85.3872C72.3704 85.0545 72.3578 84.7296 72.4131 84.4125C72.4683 84.0955 72.5873 83.7939 72.7702 83.5079C72.9514 83.2327 73.1884 82.9884 73.4813 82.7748C73.7743 82.5613 74.0826 82.4082 74.4063 82.3154C74.7283 82.2334 75.0487 82.2146 75.3674 82.2591C75.6861 82.3035 75.9916 82.4149 76.2838 82.5932C76.5806 82.7777 76.8448 83.029 77.0765 83.3468L79.2981 86.3946ZM76.7152 88.2917C76.8652 88.4973 77.0323 88.6284 77.2167 88.6849C77.4055 88.7477 77.5748 88.7245 77.7244 88.6155C77.8802 88.5019 77.9603 88.3433 77.9646 88.1398C77.9627 87.9407 77.889 87.7415 77.7436 87.542L75.5766 84.569C75.3994 84.3259 75.2149 84.1645 75.0232 84.0848C74.8297 84.0158 74.652 84.0404 74.4899 84.1585C74.3279 84.2766 74.2532 84.4361 74.2659 84.6368C74.2769 84.8483 74.371 85.0756 74.5482 85.3186L76.7152 88.2917Z" fill="#D62A6F"/>
<path d="M73.4197 91.2233L74.7687 90.5075L75.5713 92.02L71.2381 94.3192L70.4356 92.8067L71.7846 92.0909L68.5202 85.9387L70.1553 85.0711L73.4197 91.2233Z" fill="#D62A6F"/>
<path d="M69.8659 94.885L66.4829 96.1438L65.8858 94.5391L67.5339 93.9258L66.9005 92.2235L65.4259 92.7722L64.8973 91.3518L66.372 90.8031L65.6901 88.9706L63.9336 89.6242L63.3485 88.052L66.84 86.7529L69.8659 94.885Z" fill="#D62A6F"/>
<path d="M57.6622 91.2583L58.6691 91.1079L58.6118 89.081L60.4998 88.7989L60.3406 97.5959L57.9492 97.9533L55.2364 89.5855L57.1243 89.3033L57.6622 91.2583ZM58.0727 92.7528L58.6915 95.0934L58.806 95.0763L58.7134 92.657L58.0727 92.7528Z" fill="#D62A6F"/>
<path d="M53.0659 93.1858L53.0753 89.5531L54.9264 89.5579L54.9039 98.2348L52.4859 98.2285C51.6761 98.2264 51.075 98.0359 50.6826 97.6569C50.2902 97.2857 50.0951 96.6952 50.0972 95.8853C50.1 94.8133 50.4602 94.1856 51.178 94.0023L51.1783 93.8751C50.9549 93.7897 50.77 93.6889 50.6238 93.5729C50.4698 93.4645 50.3507 93.3099 50.2664 93.1092C50.1743 92.9084 50.1094 92.646 50.0717 92.3219C50.034 91.9979 50.0158 91.5737 50.0172 91.0492C50.0177 90.8332 50.0145 90.6134 50.0073 90.3897C50.0002 90.1737 49.97 89.8921 49.917 89.5449L51.768 89.5497C51.791 89.5961 51.8101 89.6848 51.8252 89.816C51.8403 89.9471 51.8553 90.1091 51.8702 90.302C51.8851 90.5026 51.8961 90.7224 51.9032 90.9615C51.9103 91.2084 51.9135 91.4629 51.9128 91.7251C51.912 92.0336 51.919 92.2805 51.934 92.4656C51.9489 92.6585 51.9832 92.8051 52.037 92.9055C52.0907 93.0136 52.1676 93.0871 52.2678 93.1259C52.368 93.1647 52.5029 93.1844 52.6726 93.1848L53.0659 93.1858ZM53.0624 94.5279L52.6575 94.5268C52.4338 94.5262 52.2562 94.6222 52.1246 94.8147C51.9852 95.0071 51.9152 95.2537 51.9144 95.5545C51.9136 95.8476 51.9825 96.0792 52.1208 96.2492C52.2515 96.427 52.4287 96.5161 52.6523 96.5167L53.0573 96.5178L53.0624 94.5279Z" fill="#D62A6F"/>
<path d="M48.0636 98.0432L45.6163 97.6687C45.2351 97.6104 44.9034 97.5089 44.6212 97.3643C44.3391 97.2197 44.1114 97.0249 43.9382 96.7799C43.7574 96.5338 43.6393 96.2348 43.5839 95.883C43.5208 95.5301 43.5261 95.1134 43.5996 94.6331C43.6684 94.1833 43.7763 93.8097 43.9232 93.5123C44.0702 93.2148 44.2503 92.981 44.4636 92.8108C44.6769 92.6406 44.9202 92.5295 45.1934 92.4777C45.4666 92.4259 45.7671 92.4251 46.095 92.4752L47.0213 92.617L47.5462 89.1861L49.376 89.4661L48.0636 98.0432ZM46.8148 93.9664L46.5403 93.9244C46.2201 93.8754 45.9874 93.9178 45.842 94.0517C45.6879 94.1919 45.5811 94.4565 45.5216 94.8453C45.4621 95.2341 45.4855 95.5147 45.5918 95.687C45.6893 95.8658 45.8981 95.9797 46.2183 96.0287L46.4928 96.0707L46.8148 93.9664Z" fill="#D62A6F"/>
<path d="M42.4497 94.5633C42.3338 94.9392 42.1666 95.2589 41.9482 95.5225C41.7275 95.7934 41.4736 96.0017 41.1866 96.1473C40.8996 96.2929 40.5917 96.3755 40.2628 96.3952C39.9242 96.42 39.5818 96.379 39.2353 96.2723C38.8889 96.1655 38.5865 96.0077 38.328 95.7989C38.0599 95.5952 37.8482 95.3524 37.6929 95.0705C37.5377 94.7886 37.4451 94.4736 37.4153 94.1254C37.3831 93.7846 37.4249 93.4262 37.5408 93.0503L38.6517 89.4461C38.7676 89.0702 38.9358 88.7467 39.1566 88.4758C39.375 88.2122 39.6277 88.0076 39.9147 87.862C40.2017 87.7164 40.5145 87.6312 40.853 87.6064C41.1819 87.5868 41.5196 87.6303 41.866 87.7371C42.2124 87.8438 42.5197 87.9991 42.7878 88.2028C43.0463 88.4116 43.2532 88.6569 43.4084 88.9388C43.5636 89.2207 43.6573 89.5321 43.6895 89.8729C43.7194 90.2211 43.6764 90.5831 43.5605 90.959L42.4497 94.5633ZM39.3837 93.6304C39.3088 93.8737 39.3039 94.086 39.369 94.2675C39.4318 94.4564 39.5517 94.5781 39.7286 94.6326C39.9129 94.6894 40.0878 94.6586 40.2535 94.5401C40.4117 94.4194 40.5272 94.2411 40.5999 94.0053L41.6835 90.4895C41.7721 90.202 41.791 89.9576 41.74 89.7563C41.6794 89.5601 41.5533 89.4324 41.3617 89.3734C41.1701 89.3143 40.9976 89.3499 40.8445 89.4803C40.6817 89.6157 40.556 89.8272 40.4674 90.1146L39.3837 93.6304Z" fill="#D62A6F"/>
<path d="M35.646 87.519L36.5635 87.9602L37.6549 86.2513L39.3752 87.0786L34.301 94.2665L32.1219 93.2186L34.5791 84.7722L36.2995 85.5995L35.646 87.519ZM35.1459 88.9859L34.3428 91.2699L34.4471 91.32L35.7298 89.2667L35.1459 88.9859Z" fill="#D62A6F"/>
<path d="M29.4098 91.7162L27.0802 90.122C26.781 89.9173 26.5539 89.6824 26.3988 89.4174C26.2437 89.1524 26.1551 88.8721 26.133 88.5766C26.1109 88.2811 26.151 87.9768 26.2532 87.6635C26.3447 87.3523 26.495 87.0439 26.704 86.7384L28.7294 83.7786C28.9385 83.4731 29.1747 83.2235 29.4381 83.0299C29.695 82.8319 29.9758 82.7016 30.2803 82.639C30.5742 82.5783 30.8959 82.5929 31.2457 82.6828C31.5891 82.7682 31.9517 82.9416 32.3336 83.2029L34.31 84.5554L29.4098 91.7162ZM31.3129 84.5512C31.1283 84.4249 30.9424 84.4098 30.7551 84.5059C30.5635 84.6084 30.3762 84.7933 30.1932 85.0607L28.4226 87.6481C28.2397 87.9154 28.133 88.1602 28.1025 88.3823C28.072 88.6044 28.149 88.7786 28.3336 88.9049L28.8492 89.2577L31.8285 84.904L31.3129 84.5512Z" fill="#D62A6F"/>
<path d="M25.6909 86.0249C25.4223 86.3122 25.1321 86.5266 24.8204 86.6681C24.5034 86.8152 24.184 86.8915 23.8622 86.8968C23.5405 86.9022 23.2274 86.8418 22.923 86.7157C22.6077 86.5899 22.3177 86.4032 22.0529 86.1557C21.788 85.9081 21.5851 85.6339 21.444 85.3331C21.292 85.0326 21.2078 84.7217 21.1916 84.4003C21.1753 84.0789 21.2298 83.7551 21.3553 83.4289C21.4754 83.1084 21.6698 82.8044 21.9384 82.5171L24.514 79.7619C24.7826 79.4745 25.0754 79.2573 25.3924 79.1102C25.7041 78.9687 26.0209 78.8953 26.3427 78.8899C26.6644 78.8845 26.983 78.9447 27.2983 79.0705C27.6026 79.1967 27.8872 79.3835 28.152 79.6311C28.4169 79.8786 28.6253 80.1526 28.7773 80.4531C28.9184 80.7539 28.9971 81.065 29.0134 81.3864C29.0296 81.7078 28.9777 82.0288 28.8575 82.3494C28.7321 82.6756 28.5351 82.9823 28.2665 83.2697L25.6909 86.0249ZM23.3419 83.8449C23.1681 84.0308 23.0708 84.2196 23.05 84.4113C23.0239 84.6087 23.0785 84.7705 23.2137 84.8969C23.3545 85.0286 23.5254 85.0774 23.7261 85.0434C23.9212 85.0041 24.1031 84.8942 24.2716 84.7139L26.784 82.0264C26.9894 81.8066 27.1132 81.5951 27.1555 81.3917C27.1868 81.1888 27.1293 81.0188 26.9828 80.8819C26.8363 80.745 26.6657 80.7016 26.4709 80.7518C26.2652 80.8024 26.0597 80.9376 25.8543 81.1573L23.3419 83.8449Z" fill="#D62A6F"/>
<path d="M22.0037 78.5146L24.8519 76.2598L26.0009 77.7111L19.1977 83.0968L17.6969 81.201C17.1942 80.566 16.969 79.9771 17.0211 79.4341C17.0673 78.8959 17.4078 78.3755 18.0428 77.8728C18.8833 77.2074 19.5988 77.0984 20.1891 77.5459L20.2889 77.4669C20.2166 77.2389 20.1803 77.0315 20.1801 76.8448C20.169 76.6568 20.2157 76.4674 20.3203 76.2764C20.4201 76.0793 20.585 75.8652 20.815 75.6339C21.0451 75.4026 21.3657 75.1241 21.7769 74.7986C21.9463 74.6646 22.1162 74.5251 22.2868 74.3802C22.4513 74.2401 22.6529 74.0412 22.8915 73.7835L24.0405 75.2348C24.0185 75.2817 23.961 75.3518 23.8677 75.4453C23.7745 75.5388 23.6571 75.6514 23.5155 75.7832C23.3678 75.9198 23.2027 76.0653 23.02 76.2197C22.8313 76.379 22.6341 76.54 22.4285 76.7027C22.1866 76.8942 21.9979 77.0535 21.8623 77.1804C21.7207 77.3122 21.6274 77.4304 21.5823 77.535C21.5311 77.6443 21.5215 77.7503 21.5535 77.8528C21.5855 77.9554 21.6542 78.0732 21.7595 78.2062L22.0037 78.5146ZM20.9514 79.3476L20.7001 79.0301C20.5613 78.8547 20.3756 78.7755 20.143 78.7924C19.9057 78.8032 19.6691 78.902 19.4332 79.0887C19.2034 79.2706 19.0651 79.4686 19.0182 79.6828C18.9605 79.8957 19.0011 80.0899 19.1399 80.2652L19.3912 80.5827L20.9514 79.3476Z" fill="#D62A6F"/>
<path d="M14.693 71.3465C14.3533 71.5121 14.1292 71.6686 14.0208 71.8158C13.9091 71.9561 13.892 72.106 13.9698 72.2655C14.0577 72.4457 14.1896 72.5402 14.3654 72.5488C14.5412 72.5575 14.7886 72.484 15.1075 72.3285L15.6794 72.0497L16.4451 73.6199L15.6132 74.0255C14.913 74.367 14.2861 74.4452 13.7326 74.2603C13.1791 74.0755 12.7401 73.6503 12.4156 72.9847C12.1181 72.3747 12.0494 71.8204 12.2096 71.3218C12.3595 70.8197 12.7277 70.387 13.3143 70.0237C13.3802 69.983 13.4479 69.9457 13.5172 69.9119C13.5832 69.8712 13.6543 69.8322 13.7305 69.795C14.1118 69.6091 14.4752 69.492 14.8206 69.4437C15.1557 69.3918 15.5128 69.385 15.8918 69.4233C16.2709 69.4616 16.6909 69.5399 17.152 69.6583C17.6027 69.7732 18.1395 69.9062 18.7624 70.0573L18.8559 70.0116L17.7505 67.7447L19.2792 66.9993L21.348 71.242L19.8922 71.9519C19.8198 71.9443 19.7371 71.9331 19.6441 71.9184C19.5442 71.907 19.4237 71.8886 19.2825 71.863C19.1413 71.8375 18.9692 71.8013 18.7662 71.7544C18.5631 71.7076 18.3119 71.6499 18.0125 71.5813C17.4584 71.4482 17.0093 71.3454 16.6651 71.273C16.3175 71.1937 16.0317 71.1442 15.8076 71.1248C15.5767 71.1087 15.3834 71.1171 15.2279 71.15C15.0654 71.1864 14.8871 71.2519 14.693 71.3465Z" fill="#D62A6F"/>
<path d="M16.9433 67.6161L13.3577 68.7856C12.9837 68.9076 12.6273 68.9589 12.2884 68.9397C11.9421 68.9228 11.6292 68.8464 11.3496 68.7104C11.0676 68.5671 10.8262 68.3741 10.6253 68.1313C10.4147 67.8836 10.2556 67.5948 10.148 67.2648C10.0427 66.9422 10.0034 66.6224 10.0298 66.3055C10.0489 65.991 10.1313 65.6964 10.277 65.4217C10.4227 65.1471 10.6304 64.9009 10.9001 64.6831C11.1624 64.4677 11.4806 64.299 11.8546 64.1771L15.4402 63.0076C15.8142 62.8856 16.1743 62.833 16.5205 62.8499C16.8594 62.8692 17.1687 62.9468 17.4483 63.0828C17.7279 63.2187 17.9718 63.4069 18.18 63.6473C18.3809 63.89 18.5339 64.1727 18.6392 64.4954C18.7468 64.8253 18.7922 65.1512 18.7755 65.4731C18.7491 65.79 18.6642 66.0894 18.5209 66.3714C18.3752 66.6461 18.1712 66.8911 17.9088 67.1065C17.6391 67.3243 17.3173 67.4941 16.9433 67.6161ZM15.7873 64.7806L12.6196 65.8137C12.3116 65.9142 12.0779 66.0432 11.9183 66.2007C11.7587 66.3582 11.7136 66.5433 11.783 66.7559C11.8524 66.9685 11.9979 67.0914 12.2196 67.1246C12.4414 67.1577 12.7062 67.1241 13.0142 67.0236L16.1819 65.9904C16.4899 65.89 16.7236 65.761 16.8832 65.6035C17.0427 65.446 17.0878 65.2609 17.0185 65.0483C16.9491 64.8356 16.8036 64.7127 16.5818 64.6796C16.3601 64.6465 16.0953 64.6801 15.7873 64.7806Z" fill="#D62A6F"/>
<path d="M11.365 60.4519C10.9929 60.5182 10.7346 60.6074 10.5901 60.7193C10.4441 60.8237 10.3868 60.9632 10.4179 61.1379C10.4531 61.3353 10.5541 61.4622 10.7208 61.5186C10.8876 61.5751 11.1456 61.5722 11.4949 61.5099L12.1213 61.3982L12.428 63.118L11.5169 63.2805C10.75 63.4172 10.1256 63.321 9.64384 62.9916C9.16205 62.6623 8.85616 62.1332 8.72617 61.4043C8.60701 60.7361 8.69269 60.1842 8.98321 59.7485C9.26478 59.3065 9.73736 58.9911 10.401 58.8023C10.4755 58.7812 10.5508 58.7638 10.6267 58.7503C10.7013 58.7291 10.7803 58.7111 10.8639 58.6962C11.2815 58.6218 11.663 58.6086 12.0085 58.6566C12.345 58.6985 12.6903 58.7897 13.0444 58.9302C13.3985 59.0708 13.7811 59.2611 14.1921 59.5011C14.5942 59.735 15.0741 60.0098 15.6318 60.3256L15.7343 60.3073L15.2915 57.8244L16.9658 57.5258L17.7945 62.1727L16.2 62.4571C16.1325 62.4299 16.056 62.3966 15.9706 62.3569C15.8776 62.3187 15.7667 62.268 15.6379 62.2047C15.5091 62.1415 15.3535 62.0596 15.171 61.959C14.9885 61.8583 14.7627 61.7341 14.4934 61.5862C13.997 61.3065 13.5932 61.0848 13.2819 60.9209C12.9693 60.7495 12.7079 60.6237 12.4978 60.5437C12.28 60.465 12.0919 60.4202 11.9332 60.4093C11.767 60.3998 11.5776 60.414 11.365 60.4519Z" fill="#D62A6F"/>
<path d="M8.078 55.2035C8.05183 54.4712 8.24355 53.8971 8.65316 53.4812C9.05507 53.0655 9.61443 52.8448 10.3313 52.8192L10.3924 54.5304C10.1612 54.5386 9.97825 54.603 9.84364 54.7236C9.70132 54.8445 9.63333 54.9935 9.63967 55.1708C9.64325 55.271 9.67339 55.3587 9.7301 55.4338C9.78654 55.5013 9.85797 55.5566 9.94441 55.5998C10.0309 55.6431 10.1284 55.6743 10.2372 55.6936C10.3382 55.7131 10.4427 55.721 10.5506 55.7171L11.753 55.6741L11.7497 55.5816C11.4964 55.4055 11.3046 55.2194 11.1741 55.0234C11.0356 54.8199 10.9607 54.5602 10.9494 54.2442C10.9321 53.7586 11.0646 53.3641 11.3471 53.0607C11.6292 52.7497 12.0285 52.5849 12.5449 52.5665L14.5104 52.4962C15.2812 52.4687 15.8785 52.6596 16.3021 53.0689C16.7255 53.4705 16.9508 54.0529 16.9781 54.816C17.0062 55.6022 16.808 56.2112 16.3835 56.6432C15.9591 57.0751 15.3113 57.3066 14.4403 57.3377L11.0759 57.458C10.174 57.4902 9.45802 57.3228 8.92782 56.9559C8.38964 56.5815 8.10637 55.9974 8.078 55.2035ZM12.4343 54.9783C12.4407 55.1556 12.5154 55.3034 12.6585 55.4218C12.794 55.5405 12.9503 55.5966 13.1276 55.5903L14.6885 55.5345C14.8889 55.5273 15.0562 55.4596 15.1906 55.3313C15.3249 55.203 15.3889 55.0503 15.3826 54.873C15.3762 54.6957 15.3055 54.5516 15.1703 54.4407C15.0272 54.3223 14.8516 54.2668 14.6434 54.2743L13.0826 54.33C12.8976 54.3367 12.7418 54.404 12.6152 54.532C12.4885 54.66 12.4283 54.8088 12.4343 54.9783Z" fill="#D62A6F"/>
<path d="M12.8169 46.1163L13.5411 42.9233L14.7258 43.192L14.0016 46.385L12.8169 46.1163Z" fill="#D62A6F"/>
<path d="M14.5274 35.8886C14.1809 35.7025 13.8993 35.4769 13.6828 35.2118C13.4594 34.943 13.3039 34.6538 13.2163 34.3442C13.1287 34.0345 13.1069 33.7164 13.1509 33.3899C13.1918 33.0529 13.298 32.7247 13.4695 32.4053C13.641 32.086 13.8541 31.8196 14.1087 31.6061C14.3602 31.3823 14.6393 31.2213 14.9458 31.1233C15.2523 31.0252 15.5793 30.9951 15.9267 31.0328C16.2673 31.0669 16.6109 31.1769 16.9575 31.363L20.2803 33.1473C20.6269 33.3333 20.9118 33.5608 21.1352 33.8295C21.3518 34.0946 21.5039 34.382 21.5914 34.6917C21.679 35.0014 21.7024 35.3247 21.6615 35.6617C21.6175 35.9882 21.5098 36.3112 21.3383 36.6305C21.1668 36.9499 20.9553 37.2215 20.7038 37.4454C20.4491 37.6588 20.1685 37.8146 19.862 37.9126C19.5554 38.0106 19.2319 38.0426 18.8912 38.0085C18.5438 37.9708 18.1968 37.8589 17.8503 37.6728L14.5274 35.8886ZM16.0333 33.0597C15.809 32.9393 15.6016 32.8936 15.411 32.9226C15.2135 32.9479 15.071 33.0421 14.9835 33.2051C14.8923 33.375 14.8888 33.5526 14.9731 33.738C15.0611 33.9165 15.2138 34.0642 15.4312 34.1809L18.6725 35.9214C18.9375 36.0637 19.1737 36.1292 19.3811 36.118C19.5853 36.0964 19.7349 35.9972 19.8297 35.8205C19.9246 35.6438 19.9228 35.4678 19.8244 35.2924C19.7229 35.1066 19.5396 34.9425 19.2746 34.8002L16.0333 33.0597Z" fill="#D62A6F"/>
<path d="M22.049 27.1804L21.9234 27.3164L25.5484 30.3826L24.2529 31.7846L17.8803 25.8958L19.5448 24.0945L23.7991 26.9231L23.9247 26.7871L20.7775 22.7605L22.45 20.9507L28.8226 26.8394L27.5271 28.2414L24.0997 24.7908L23.9741 24.9267L27.001 28.8107L26.0588 29.8303L22.049 27.1804Z" fill="#D62A6F"/>
<path d="M30.4218 23.0626L29.611 23.6783L30.6349 25.4284L29.1147 26.5829L25.0281 18.791L26.9537 17.3287L33.353 23.3644L31.8327 24.5188L30.4218 23.0626ZM29.3438 21.9491L27.6766 20.1936L27.5844 20.2636L28.8278 22.3409L29.3438 21.9491Z" fill="#D62A6F"/>
<path d="M33.6593 23.2057L29.2268 15.7464L30.8181 14.8008L35.2565 22.27L33.6593 23.2057Z" fill="#D62A6F"/>
<path d="M33.1882 16.3518C33.0249 15.9939 32.9372 15.6439 32.9252 15.3018C32.91 14.9527 32.9612 14.6283 33.0788 14.3288C33.1965 14.0292 33.3716 13.7628 33.6042 13.5295C33.8407 13.2859 34.1238 13.0889 34.4536 12.9384C34.7834 12.7879 35.1142 12.7047 35.4461 12.6889C35.7818 12.6628 36.1014 12.7035 36.4047 12.8109C36.7081 12.9184 36.9866 13.0922 37.2404 13.3325C37.491 13.5657 37.6979 13.8612 37.8613 14.2191L39.4271 17.6502C39.5904 18.0081 39.6797 18.3616 39.6949 18.7107C39.7069 19.0528 39.6541 19.3737 39.5365 19.6732C39.4188 19.9728 39.2418 20.2443 39.0053 20.4879C38.7727 20.7212 38.4915 20.9131 38.1617 21.0636C37.8319 21.2141 37.4992 21.3024 37.1635 21.3284C36.8316 21.3443 36.514 21.2985 36.2106 21.191C35.9072 21.0836 35.6303 20.9133 35.3797 20.6801C35.1259 20.4398 34.9174 20.1407 34.7541 19.7829L33.1882 16.3518ZM36.0988 15.0107C35.9931 14.7792 35.8556 14.6172 35.6863 14.525C35.5138 14.4256 35.3434 14.4144 35.175 14.4913C34.9996 14.5713 34.8894 14.7106 34.8443 14.9092C34.8063 15.1046 34.8386 15.3146 34.941 15.5391L36.4685 18.886C36.5934 19.1597 36.7418 19.3548 36.9136 19.4713C37.0893 19.5777 37.2684 19.5892 37.4508 19.5059C37.6333 19.4227 37.7384 19.2814 37.7662 19.0823C37.7978 18.8728 37.7511 18.6313 37.6262 18.3577L36.0988 15.0107Z" fill="#D62A6F"/>
<path d="M41.5481 15.8083L42.5375 19.3037L40.7564 19.8079L38.3931 11.459L40.7197 10.8005C41.4989 10.5799 42.1292 10.5978 42.6106 10.8543C43.0899 11.1034 43.4399 11.6176 43.6605 12.3968C43.9525 13.4283 43.7786 14.1309 43.1388 14.5043L43.1735 14.6268C43.4118 14.6475 43.6172 14.6936 43.7898 14.765C43.9676 14.8268 44.1246 14.9427 44.2609 15.1125C44.4046 15.2803 44.5391 15.5148 44.6644 15.8159C44.7897 16.1171 44.9238 16.52 45.0667 17.0247C45.1255 17.2325 45.1891 17.4429 45.2574 17.656C45.3237 17.8617 45.43 18.1242 45.5765 18.4435L43.7954 18.9476C43.7606 18.9094 43.7178 18.8293 43.6673 18.7074C43.6167 18.5854 43.5578 18.4338 43.4904 18.2524C43.421 18.0637 43.35 17.8553 43.2774 17.6274C43.2028 17.392 43.1297 17.1481 43.0583 16.8958C42.9743 16.599 42.8996 16.3636 42.8344 16.1897C42.767 16.0084 42.6937 15.8768 42.6144 15.795C42.5331 15.7058 42.4389 15.6564 42.3319 15.6466C42.225 15.6368 42.0898 15.655 41.9266 15.7012L41.5481 15.8083ZM41.1826 14.517L41.5722 14.4067C41.7874 14.3458 41.9318 14.2047 42.0055 13.9835C42.0865 13.7602 42.0861 13.5038 42.0042 13.2143C41.9243 12.9323 41.7945 12.7286 41.6147 12.6032C41.4402 12.4682 41.2454 12.4312 41.0302 12.4921L40.6406 12.6024L41.1826 14.517Z" fill="#D62A6F"/>
<path d="M48.1681 9.32914L50.987 9.1783C51.349 9.15893 51.6721 9.20729 51.9564 9.32339C52.2406 9.43948 52.4814 9.60811 52.6786 9.82927C52.8758 10.0504 53.0291 10.3164 53.1384 10.6273C53.255 10.93 53.3232 11.2662 53.343 11.6359L53.5346 15.2172C53.5544 15.5869 53.5186 15.9286 53.4273 16.2425C53.3436 16.5559 53.2 16.8301 52.9963 17.0649C52.7999 17.2917 52.5355 17.4758 52.2032 17.6172C51.8786 17.7581 51.4853 17.8409 51.0232 17.8657L48.6318 17.9936L48.1681 9.32914ZM51.0138 16.1747C51.2372 16.1627 51.3939 16.0616 51.4842 15.8714C51.574 15.6735 51.6103 15.4128 51.5929 15.0894L51.4254 11.9586C51.4081 11.6351 51.344 11.3759 51.2332 11.181C51.1224 10.9862 50.9553 10.8947 50.7319 10.9066L50.1081 10.94L50.39 16.208L51.0138 16.1747Z" fill="#D62A6F"/>
<path d="M57.011 16.054L55.9975 15.9578L55.5654 17.9388L53.665 17.7585L55.936 9.25814L58.3432 9.4866L58.9631 18.2613L57.0627 18.0809L57.011 16.054ZM56.9721 14.5047L56.9346 12.0839L56.8194 12.073L56.3271 14.4434L56.9721 14.5047Z" fill="#D62A6F"/>
<path d="M65.512 13.5075C65.4647 13.6543 65.4342 13.7863 65.4208 13.9035C65.417 14.0157 65.4364 14.1314 65.479 14.2505C65.5313 14.3646 65.6118 14.4919 65.7205 14.6323C65.8292 14.7727 65.976 14.9457 66.1609 15.1512C66.4247 15.4389 66.6371 15.71 66.7981 15.9646C66.9665 16.2215 67.0873 16.4752 67.1604 16.7257C67.236 16.9689 67.2652 17.2174 67.2482 17.4712C67.2408 17.7201 67.1922 17.984 67.1022 18.2629C66.8654 18.997 66.4824 19.4934 65.9532 19.7522C65.4337 20.006 64.7959 20.011 64.0399 19.7671C63.2545 19.5138 62.7152 19.1129 62.422 18.5645C62.1362 18.0185 62.1164 17.3638 62.3627 16.6004L62.6894 15.5874L64.4842 16.1663L64.1858 17.0912C64.0911 17.3848 64.0728 17.6301 64.1308 17.8271C64.1912 18.0168 64.3241 18.1448 64.5296 18.2111C64.7132 18.2703 64.8727 18.2529 65.0084 18.1589C65.1538 18.0599 65.2632 17.8966 65.3366 17.6691C65.4218 17.4048 65.4157 17.1476 65.3181 16.8973C65.2229 16.6397 65.0225 16.344 64.7168 16.0104C64.4407 15.7106 64.2111 15.4299 64.0281 15.1683C63.8524 14.909 63.7231 14.6566 63.6403 14.4111C63.5671 14.1605 63.5342 13.9108 63.5415 13.662C63.5512 13.4058 63.6022 13.1345 63.6946 12.8483C63.8059 12.5033 63.9627 12.2054 64.1652 11.9546C64.3676 11.7039 64.5999 11.5114 64.862 11.3771C65.1265 11.2355 65.416 11.1547 65.7304 11.1345C66.0522 11.1168 66.3856 11.1635 66.7306 11.2748C67.494 11.5211 68.0113 11.9148 68.2824 12.4561C68.5535 12.9974 68.5766 13.6167 68.3517 14.3141L68.0604 15.2169L66.2767 14.6415L66.4792 14.0139C66.5763 13.713 66.6056 13.4712 66.5673 13.2887C66.5386 13.1011 66.4289 12.9766 66.238 12.915C66.0912 12.8677 65.956 12.8848 65.8324 12.9665C65.7112 13.0409 65.6044 13.2212 65.512 13.5075Z" fill="#D62A6F"/>
<path d="M70.2078 20.0701L69.2955 19.6181L68.1841 21.314L66.4737 20.4665L71.6321 13.3388L73.7987 14.4123L71.2422 22.8292L69.5318 21.9817L70.2078 20.0701ZM70.7251 18.6091L71.555 16.3348L71.4513 16.2834L70.1445 18.3215L70.7251 18.6091Z" fill="#D62A6F"/>
<path d="M76.4665 15.9254L78.4988 17.3395C78.8153 17.5597 79.0684 17.7969 79.2581 18.051C79.4477 18.3051 79.5663 18.5803 79.6139 18.8765C79.6678 19.1771 79.6422 19.4975 79.537 19.8377C79.4382 20.1824 79.25 20.5541 78.9725 20.953C78.7125 21.3265 78.4511 21.6144 78.1882 21.8167C77.9253 22.0191 77.6606 22.1496 77.3941 22.2085C77.1277 22.2674 76.8604 22.26 76.5922 22.1862C76.3241 22.1124 76.054 21.9807 75.7817 21.7913L75.0125 21.2561L73.0302 24.1051L71.5107 23.0478L76.4665 15.9254ZM75.7922 20.1355L76.0201 20.2941C76.286 20.4791 76.5137 20.5435 76.7031 20.4874C76.9032 20.4293 77.1156 20.2389 77.3403 19.916C77.5649 19.5931 77.6675 19.3309 77.648 19.1294C77.6392 18.926 77.5018 18.7317 77.2359 18.5467L77.008 18.3881L75.7922 20.1355Z" fill="#D62A6F"/>
<path d="M78.7543 25.5391C78.5742 25.7297 78.4706 25.9236 78.4435 26.1208C78.4217 26.3124 78.4836 26.477 78.6294 26.6147C78.7696 26.7471 78.9319 26.7943 79.1163 26.7564C79.3063 26.7237 79.494 26.6092 79.6794 26.413L83.9297 21.9135L85.2754 23.1847L80.89 27.8271C80.3815 28.3653 79.8192 28.6405 79.203 28.6526C78.5921 28.6591 78.0064 28.3975 77.4457 27.8678C77.1597 27.5977 76.9444 27.3147 76.7995 27.0187C76.6547 26.7228 76.5753 26.425 76.5613 26.1253C76.5582 25.8253 76.6153 25.529 76.7324 25.2365C76.8496 24.944 77.03 24.6688 77.2736 24.4109L81.6272 19.8022L82.9728 21.0733L78.7543 25.5391Z" fill="#D62A6F"/>
<path d="M81.1642 32.05C80.6646 31.4028 80.462 30.7554 80.5564 30.1077C80.6615 29.4614 81.056 28.8743 81.7398 28.3464L84.6429 26.1054C84.9421 25.8745 85.2515 25.7136 85.5711 25.6228C85.9015 25.5333 86.2229 25.5142 86.5353 25.5654C86.8537 25.6119 87.1607 25.7257 87.4564 25.9067C87.752 26.0877 88.02 26.3339 88.2604 26.6453C88.7411 27.268 88.9265 27.8995 88.8166 28.5397C88.7067 29.1799 88.3129 29.7616 87.6352 30.2847L86.93 30.829L85.7495 29.2997L86.4546 28.7553C86.7049 28.5621 86.8697 28.3716 86.9488 28.1838C87.0327 28.0022 87.0087 27.8258 86.8767 27.6549C86.7447 27.4839 86.5732 27.4069 86.3621 27.4237C86.1557 27.4466 85.9273 27.5547 85.677 27.7479L82.8929 29.897C82.6548 30.0808 82.4986 30.2697 82.4241 30.4635C82.3558 30.6527 82.3852 30.8297 82.5125 30.9946C82.635 31.1533 82.7941 31.2205 82.9897 31.1962C83.1961 31.1733 83.4183 31.0699 83.6564 30.8861L84.8653 29.9529L86.06 31.5006L85.2724 32.1086C83.5751 33.4188 82.2057 33.3993 81.1642 32.05Z" fill="#D62A6F"/>
<path d="M86.0422 35.6922L85.5411 34.806L83.6692 35.5853L82.7297 33.9236L91.0003 30.9218L92.1903 33.0266L85.349 38.5562L84.4095 36.8945L86.0422 35.6922ZM87.2905 34.7737L89.2543 33.3577L89.1973 33.257L86.9716 34.2098L87.2905 34.7737Z" fill="#D62A6F"/>
<path d="M85.4655 38.8776L93.4397 35.4571L94.1694 37.1583L86.1845 40.5834L85.4655 38.8776ZM94.1781 35.8579L93.909 35.2306C94.221 35.2143 94.5319 35.1859 94.8417 35.1453C95.1618 35.1087 95.4716 35.0681 95.7714 35.0234L96.3004 36.2568C96.2387 36.2497 96.1804 36.2411 96.1257 36.231C96.071 36.2209 96.0128 36.2123 95.951 36.2053C95.6634 36.1608 95.3677 36.1072 95.0638 36.0445C94.7701 35.9859 94.4749 35.9237 94.1781 35.8579Z" fill="#D62A6F"/>
<path d="M92.4293 45.1337L92.9752 48.3619L91.7774 48.5645L91.2315 45.3362L92.4293 45.1337Z" fill="#D62A6F"/>
</svg>
